<?xml version="1.0" encoding="UTF-8"?> <svg xmlns="http://www.w3.org/2000/svg" id="Layer_3" data-name="Layer 3" viewBox="0 0 806 453"><defs><style>.cls-1,.cls-4{fill:#e9f5f5;}.cls-2{opacity:0.76;}.cls-10,.cls-11,.cls-3,.cls-7,.cls-8{fill:#fff;}.cls-3,.cls-4,.cls-6,.cls-7{stroke:#025546;}.cls-10,.cls-11,.cls-13,.cls-18,.cls-3,.cls-4,.cls-6,.cls-7{stroke-linecap:round;stroke-linejoin:round;}.cls-3,.cls-4,.cls-6{stroke-width:1.29px;}.cls-5{fill:#025546;}.cls-13,.cls-18,.cls-6,.cls-9{fill:none;}.cls-10,.cls-11,.cls-15,.cls-16,.cls-17,.cls-7,.cls-9{stroke-width:1.03px;}.cls-9{stroke:#88cac9;}.cls-10{stroke:#fed03d;}.cls-11{stroke:#5dab47;}.cls-12,.cls-15{fill:#5dab47;}.cls-13,.cls-18{stroke:#fff;}.cls-13{stroke-width:3.48px;}.cls-14{fill:#e9662e;}.cls-15,.cls-16,.cls-17{stroke:#045345;}.cls-16{fill:#fed03d;}.cls-17{fill:#88cac9;}.cls-18{stroke-width:3.48px;}</style></defs><g id="Overview-Page"><g id="Desktop---MS---Overview_1" data-name="Desktop---MS---Overview 1"><g id="MS-Interactive-1"><polygon id="Path" class="cls-1" points="689.83 343.44 474.14 219.31 406.34 219.31 220.71 327.46 436.38 451.6 504.18 451.6 689.83 343.44"></polygon><g id="Group" class="cls-2"><polygon id="Path-2" class="cls-3" points="424.54 40.46 238.73 148.55 219.96 137.8 405.76 29.72 424.54 40.46"></polygon><polygon id="Path-3" class="cls-4" points="424.54 40.46 423.99 230.27 238.12 338.36 238.73 148.55 424.54 40.46"></polygon><polygon id="Path-4" class="cls-3" points="238.73 148.55 238.12 338.36 219.41 327.55 219.96 137.8 238.73 148.55"></polygon></g><polygon id="Path-5" class="cls-1" points="416.76 343.54 424.33 348.71 615.41 237.55 592.12 223.83 592.65 240.43 416.76 343.54"></polygon><polygon id="Path-6" class="cls-3" points="416.12 311.95 416.06 340.95 238.82 238.59 238.88 209.6 416.12 311.95"></polygon><polygon id="Path-7" class="cls-5" points="249.18 232.38 249.12 235.82 247.98 235.11 247.98 236.13 245.85 234.86 245.85 233.77 244.64 233.1 244.7 229.65 249.18 232.38"></polygon><polygon id="Path-8" class="cls-5" points="248.01 225.1 248.01 226.19 249.18 226.85 249.18 230.31 244.64 227.58 244.64 224.13 245.81 224.87 245.81 223.83 248.01 225.1"></polygon><polygon id="Path-9" class="cls-5" points="253.85 228.39 253.85 229.4 255 230.13 255 233.55 250.47 230.84 250.47 227.43 251.63 228.09 251.63 227.07 253.85 228.39"></polygon><polygon id="Path-10" class="cls-5" points="259.02 231.58 259.02 232.6 260.17 233.33 260.17 236.77 255.65 234.06 255.71 230.6 256.86 231.33 256.86 230.31 259.02 231.58"></polygon><polygon id="Path-11" class="cls-5" points="265.35 241.41 265.35 244.82 264.2 244.11 264.2 245.19 261.99 243.87 261.99 242.84 260.83 242.13 260.83 238.71 265.35 241.41"></polygon><polygon id="Path-12" class="cls-5" points="264.2 234.87 264.2 235.9 265.35 236.63 265.35 240.01 260.83 237.28 260.83 233.9 261.99 234.57 261.99 233.55 264.2 234.87"></polygon><polygon id="Path-13" class="cls-5" points="270.02 237.44 270.02 238.46 271.17 239.18 271.17 242.59 266.65 239.9 266.65 236.49 267.8 237.2 267.8 236.13 270.02 237.44"></polygon><polygon id="Path-14" class="cls-5" points="276.35 247.88 276.29 251.3 275.15 250.59 275.15 251.66 273.03 250.35 273.03 249.32 271.83 248.61 271.88 245.19 276.35 247.88"></polygon><polygon id="Path-15" class="cls-5" points="275.2 240.69 275.2 241.73 276.35 242.38 276.35 245.83 271.83 243.11 271.83 239.67 272.98 240.39 272.98 239.37 275.2 240.69"></polygon><polygon id="Path-16" class="cls-5" points="255 234.94 255 238.36 253.84 237.7 253.84 238.71 251.63 237.39 251.63 236.38 250.47 235.66 250.47 232.25 255 234.94"></polygon><polygon id="Path-17" class="cls-5" points="260.17 238.2 260.17 241.66 259.02 240.93 259.02 241.95 256.81 240.68 256.81 239.59 255.65 238.93 255.65 235.49 260.17 238.2"></polygon><polygon id="Path-18" class="cls-5" points="271.17 244.67 271.17 248.06 270.02 247.39 269.96 248.42 267.8 247.1 267.8 246.06 266.65 245.33 266.65 241.95 271.17 244.67"></polygon><polygon id="Path-19" class="cls-5" points="282.95 245.16 282.95 246.19 284.12 246.92 284.12 250.36 279.59 247.64 279.59 244.19 280.75 244.92 280.75 243.89 282.95 245.16"></polygon><polygon id="Path-20" class="cls-5" points="289.3 255 289.24 258.42 288.08 257.69 288.08 258.78 285.93 257.45 285.93 256.44 284.77 255.72 284.77 252.3 289.3 255"></polygon><polygon id="Path-21" class="cls-5" points="289.94 244.52 289.94 246.48 279.59 240.67 279.59 238.71 289.94 244.52"></polygon><polygon id="Path-22" class="cls-5" points="288.13 248.44 288.13 249.47 289.3 250.18 289.3 253.6 284.77 250.91 284.77 247.43 285.93 248.14 285.93 247.13 288.13 248.44"></polygon><polygon id="Path-23" class="cls-5" points="295.12 258.3 295.12 261.71 293.95 260.99 293.95 262.02 291.75 260.69 291.75 259.68 290.59 259.01 290.59 255.54 295.12 258.3"></polygon><polygon id="Path-24" class="cls-5" points="300.94 250.95 300.94 252.95 290.59 247.12 290.59 245.19 300.94 250.95"></polygon><polygon id="Path-25" class="cls-5" points="293.98 251.68 293.92 252.7 295.12 253.42 295.06 256.84 290.59 254.15 290.64 250.73 291.8 251.38 291.8 250.36 293.98 251.68"></polygon><polygon id="Path-26" class="cls-5" points="300.3 261.49 300.3 264.94 299.13 264.22 299.13 265.24 296.93 263.97 296.93 262.94 295.76 262.22 295.76 258.78 300.3 261.49"></polygon><polygon id="Path-27" class="cls-5" points="299.1 254.87 299.1 255.96 300.3 256.62 300.24 260.06 295.76 257.35 295.82 253.91 296.96 254.62 296.96 253.6 299.1 254.87"></polygon><polygon id="Path-28" class="cls-5" points="306.12 264.71 306.12 268.12 304.96 267.46 304.96 268.48 302.75 267.16 302.75 266.15 301.58 265.42 301.58 262.02 306.12 264.71"></polygon><polygon id="Path-29" class="cls-5" points="304.96 257.5 304.96 258.51 306.12 259.24 306.12 262.66 301.58 259.96 301.58 256.55 302.81 257.2 302.81 256.18 304.96 257.5"></polygon><polygon id="Path-30" class="cls-5" points="311.3 267.97 311.3 271.41 310.07 270.68 310.07 271.72 307.93 270.45 307.93 269.36 306.76 268.7 306.76 265.24 311.3 267.97"></polygon><polygon id="Path-31" class="cls-5" points="310.13 260.69 310.13 261.72 311.3 262.44 311.3 265.9 306.76 263.17 306.76 259.73 307.93 260.46 307.93 259.42 310.13 260.69"></polygon><polygon id="Path-32" class="cls-5" points="284.12 252.44 284.12 255.88 282.95 255.16 282.95 256.18 280.75 254.86 280.75 253.84 279.59 253.17 279.59 249.72 284.12 252.44"></polygon><polygon id="Path-33" class="cls-5" points="318.41 271.85 318.41 275.29 317.25 274.57 317.25 275.6 315.04 274.33 315.04 273.24 313.88 272.58 313.88 269.12 318.41 271.85"></polygon><polygon id="Path-34" class="cls-5" points="324.23 264.59 324.23 266.54 313.88 260.73 313.88 258.78 324.23 264.59"></polygon><polygon id="Path-35" class="cls-5" points="317.21 265.22 317.21 266.3 318.41 266.97 318.36 270.42 313.88 267.69 313.94 264.25 315.09 264.98 315.09 263.96 317.21 265.22"></polygon><polygon id="Path-36" class="cls-5" points="324.23 275.07 324.23 278.47 323.08 277.82 323.08 278.83 320.87 277.52 320.87 276.5 319.71 275.78 319.71 272.36 324.23 275.07"></polygon><polygon id="Path-37" class="cls-5" points="323.08 268.5 323.08 269.53 324.23 270.24 324.23 273.66 319.71 270.96 319.71 267.55 320.87 268.21 320.87 267.18 323.08 268.5"></polygon><polygon id="Path-38" class="cls-5" points="329.41 278.32 329.41 281.77 328.2 281.04 328.2 282.07 326.04 280.73 326.04 279.71 324.89 279.04 324.89 275.6 329.41 278.32"></polygon><polygon id="Path-39" class="cls-5" points="335.23 271.06 335.23 273.01 324.89 267.24 324.89 265.24 335.23 271.06"></polygon><polygon id="Path-40" class="cls-5" points="328.26 271.05 328.26 272.08 329.41 272.8 329.41 276.25 324.89 273.53 324.89 270.08 326.04 270.8 326.04 269.78 328.26 271.05"></polygon><polygon id="Path-41" class="cls-5" points="334.08 274.33 334.08 275.35 335.23 276.07 335.23 279.48 330.71 276.79 330.71 273.38 331.86 274.03 331.86 273.01 334.08 274.33"></polygon><polygon id="Path-42" class="cls-5" points="340.41 284.78 340.41 288.24 339.25 287.51 339.25 288.55 337.04 287.21 337.04 286.18 335.89 285.51 335.89 282.07 340.41 284.78"></polygon><polygon id="Path-43" class="cls-5" points="344.43 280.75 344.43 281.84 345.59 282.51 345.59 285.95 341.06 283.22 341.06 279.78 342.28 280.51 342.28 279.48 344.43 280.75"></polygon><polygon id="Path-44" class="cls-5" points="346.24 277.52 346.24 279.48 335.89 273.67 335.89 271.72 346.24 277.52"></polygon><polygon id="Path-45" class="cls-5" points="339.21 277.55 339.21 278.58 340.41 279.31 340.35 282.72 335.89 280.02 335.94 276.6 337.08 277.27 337.08 276.25 339.21 277.55"></polygon><polygon id="Path-46" class="cls-5" points="335.23 281.53 335.17 284.95 334.03 284.28 334.03 285.31 331.91 283.98 331.91 282.97 330.71 282.25 330.77 278.83 335.23 281.53"></polygon><polygon id="Path-47" class="cls-5" points="345.59 288.01 345.59 291.41 344.43 290.7 344.43 291.77 342.22 290.46 342.22 289.44 341.06 288.72 341.06 285.31 345.59 288.01"></polygon><polygon id="Path-48" class="cls-5" points="353.36 291.88 353.36 295.3 352.19 294.64 352.19 295.65 349.99 294.34 349.99 293.32 348.82 292.61 348.82 289.19 353.36 291.88"></polygon><polygon id="Path-49" class="cls-5" points="359.18 284.66 359.18 286.6 348.82 280.83 348.82 278.83 359.18 284.66"></polygon><polygon id="Path-50" class="cls-5" points="352.15 285.33 352.15 286.34 353.36 287.07 353.3 290.49 348.82 287.78 348.88 284.37 350.02 285.03 350.02 284.01 352.15 285.33"></polygon><polygon id="Path-51" class="cls-5" points="359.18 295.14 359.18 298.59 358.02 297.87 358.02 298.89 355.81 297.62 355.81 296.59 354.64 295.87 354.64 292.43 359.18 295.14"></polygon><polygon id="Path-52" class="cls-5" points="358.02 288.51 358.02 289.6 359.18 290.27 359.18 293.71 354.64 291 354.7 287.54 355.87 288.27 355.87 287.25 358.02 288.51"></polygon><polygon id="Path-53" class="cls-5" points="364.36 298.36 364.36 301.77 363.19 301.12 363.19 302.13 360.99 300.81 360.99 299.8 359.82 299.07 359.82 295.65 364.36 298.36"></polygon><polygon id="Path-54" class="cls-5" points="363.19 291.8 363.19 292.82 364.36 293.53 364.36 296.95 359.82 294.25 359.82 290.84 360.99 291.5 360.99 290.49 363.19 291.8"></polygon><polygon id="Path-55" class="cls-5" points="369.01 294.34 369.01 295.37 370.18 296.09 370.18 299.54 365.64 296.82 365.64 293.37 366.81 294.09 366.81 293.07 369.01 294.34"></polygon><polygon id="Path-56" class="cls-5" points="375.35 304.82 375.3 308.24 374.14 307.52 374.14 308.6 371.97 307.27 372.03 306.26 370.82 305.54 370.88 302.13 375.35 304.82"></polygon><polygon id="Path-57" class="cls-5" points="381.18 297.61 381.18 299.54 370.82 293.77 370.82 291.77 381.18 297.61"></polygon><polygon id="Path-58" class="cls-5" points="374.19 297.63 374.19 298.64 375.35 299.3 375.35 302.77 370.82 300.08 370.82 296.67 371.98 297.32 371.98 296.31 374.19 297.63"></polygon><polygon id="Path-59" class="cls-5" points="379.36 300.86 379.36 301.88 380.53 302.6 380.53 306.01 376 303.32 376 299.9 377.18 300.62 377.18 299.54 379.36 300.86"></polygon><polygon id="Path-60" class="cls-5" points="370.18 301.62 370.18 305.06 368.97 304.33 368.97 305.37 366.81 304.04 366.81 303.01 365.64 302.35 365.64 298.89 370.18 301.62"></polygon><polygon id="Path-61" class="cls-5" points="380.53 308.02 380.53 311.54 379.37 310.81 379.37 311.83 377.16 310.5 377.16 309.48 376 308.81 376 305.37 380.53 308.02"></polygon><polygon id="Path-62" class="cls-5" points="311.3 257.47 311.3 259.42 300.94 253.61 300.94 251.66 311.3 257.47"></polygon><polygon id="Path-63" class="cls-5" points="370.18 291.12 370.18 293.07 359.82 287.26 359.82 285.31 370.18 291.12"></polygon><polygon id="Path-64" class="cls-5" points="407.06 316.39 407.06 327.36 385.06 315.04 385.12 304.07 407.06 316.39"></polygon><polygon id="Path-65" class="cls-5" points="395.41 305.98 395.41 307.95 385.06 302.15 385.06 300.19 395.41 305.98"></polygon><polygon id="Path-66" class="cls-5" points="406.41 312.45 406.41 314.42 396.05 308.62 396.05 306.65 406.41 312.45"></polygon><path id="Path-67" class="cls-5" d="M409.64,315.26a2.83,2.83,0,0,1,1.3,2.16c0,.79-.56,1.11-1.3.73a2.91,2.91,0,0,1-1.29-2.17C408.35,315.16,409,314.82,409.64,315.26Z"></path><polygon id="Path-68" class="cls-3" points="238.82 209.55 238.7 238.71 230.41 233.58 230.47 204.42 238.82 209.55"></polygon><polygon id="Path-69" class="cls-3" points="471.12 136.49 471.06 139.72 432.94 117.64 433 114.49 471.12 136.49"></polygon><path id="Path-70" class="cls-6" d="M234.3,211.71a2.93,2.93,0,0,1,1.3,2.18c0,.78-.58,1.12-1.3.72a2.85,2.85,0,0,1-1.3-2.18A.8.8,0,0,1,234.3,211.71Z"></path><path id="Path-71" class="cls-6" d="M234.3,228.56a2.87,2.87,0,0,1,1.3,2.15c0,.79-.58,1.11-1.3.73a2.9,2.9,0,0,1-1.29-2.12C233,228.45,233.62,228.13,234.3,228.56Z"></path><line id="Path-72" class="cls-6" x1="450.73" y1="294.37" x2="450.73" y2="323.48"></line><polygon id="Path-73" class="cls-3" points="592.76 152.01 416.37 254.25 238.82 152.01 415.23 49.77 592.76 152.01"></polygon><polygon id="Path-74" class="cls-1" points="290.59 181.73 415.9 254.25 592.12 151.61 577.16 142.96 357.68 142.96 290.59 181.73"></polygon><polygon id="Path-75" class="cls-3" points="621.23 153.78 435.47 262.02 416.76 251.19 602.53 142.96 621.23 153.78"></polygon><polygon id="Path-76" class="cls-3" points="621.23 153.31 620.69 342.96 434.88 450.94 435.42 261.3 621.23 153.31"></polygon><polygon id="Path-77" class="cls-3" points="435.53 261.81 434.99 451.6 416.12 440.79 416.67 251.01 435.53 261.81"></polygon><polygon id="Path-78" class="cls-3" points="424.52 316.97 424.4 346.13 416.12 341 416.24 311.83 424.52 316.97"></polygon><path id="Path-79" class="cls-6" d="M420.64,319.15a2.85,2.85,0,0,1,1.3,2.15c0,.79-.56,1.11-1.3.73a2.88,2.88,0,0,1-1.28-2.16C419.4,319,420,318.71,420.64,319.15Z"></path><path id="Path-80" class="cls-6" d="M420.64,336a2.84,2.84,0,0,1,1.3,2.17c0,.78-.56,1.1-1.3.72a2.84,2.84,0,0,1-1.28-2.17C419.4,335.86,420,335.53,420.64,336Z"></path><polygon id="Path-81" class="cls-3" points="416.12 282.83 416.06 311.83 238.82 209.47 238.88 180.48 416.12 282.83"></polygon><polygon id="Path-82" class="cls-5" points="249.18 203.27 249.12 206.71 247.98 205.98 247.98 207 245.85 205.74 245.85 204.65 244.64 203.99 244.7 200.54 249.18 203.27"></polygon><polygon id="Path-83" class="cls-5" points="248.01 195.99 248.01 197.07 249.18 197.74 249.18 201.18 244.64 198.47 244.64 195.01 245.81 195.74 245.81 194.72 248.01 195.99"></polygon><polygon id="Path-84" class="cls-5" points="253.85 199.27 253.85 200.29 255 201.02 255 204.42 250.47 201.73 250.47 198.31 251.63 198.97 251.63 197.96 253.85 199.27"></polygon><polygon id="Path-85" class="cls-5" points="259.02 202.5 259.02 203.52 260.17 204.24 260.17 207.66 255.65 204.96 255.71 201.55 256.86 202.27 256.86 201.18 259.02 202.5"></polygon><polygon id="Path-86" class="cls-5" points="265.35 212.29 265.35 215.71 264.2 214.98 264.2 216.07 261.99 214.75 261.99 213.73 260.83 213.02 260.83 209.6 265.35 212.29"></polygon><polygon id="Path-87" class="cls-5" points="264.2 205.75 264.2 206.78 265.35 207.45 265.35 210.89 260.83 208.23 260.83 204.73 261.99 205.44 261.99 204.42 264.2 205.75"></polygon><polygon id="Path-88" class="cls-5" points="270.02 208.97 270.02 209.99 271.17 210.71 271.17 214.13 266.65 211.44 266.65 208.02 267.8 208.73 267.8 207.66 270.02 208.97"></polygon><polygon id="Path-89" class="cls-5" points="276.35 218.79 276.29 222.23 275.15 221.51 275.15 222.54 273.03 221.27 273.03 220.17 271.83 219.52 271.88 216.07 276.35 218.79"></polygon><polygon id="Path-90" class="cls-5" points="275.2 211.52 275.2 212.6 276.35 213.27 276.35 216.72 271.83 214 271.83 210.55 272.98 211.28 272.98 210.24 275.2 211.52"></polygon><polygon id="Path-91" class="cls-5" points="255 206.47 255 209.89 253.84 209.23 253.84 210.24 251.63 208.92 251.63 207.91 250.47 207.18 250.47 203.78 255 206.47"></polygon><polygon id="Path-92" class="cls-5" points="260.17 209.73 260.17 213.17 259.02 212.45 259.02 213.48 256.81 212.15 256.81 211.13 255.65 210.46 255.65 207 260.17 209.73"></polygon><polygon id="Path-93" class="cls-5" points="271.17 215.53 271.17 218.95 270.02 218.28 269.96 219.31 267.8 218 267.8 216.97 266.65 216.31 266.65 212.84 271.17 215.53"></polygon><polygon id="Path-94" class="cls-5" points="282.95 216.09 282.95 217.11 284.12 217.83 284.12 221.25 279.59 218.54 279.59 215.14 280.75 215.85 280.75 214.78 282.95 216.09"></polygon><polygon id="Path-95" class="cls-5" points="289.3 226.53 289.24 229.95 288.08 229.28 288.08 230.31 285.93 228.99 285.93 227.96 284.77 227.25 284.77 223.83 289.3 226.53"></polygon><polygon id="Path-96" class="cls-5" points="289.94 216.06 289.94 218.01 279.59 212.2 279.59 210.24 289.94 216.06"></polygon><polygon id="Path-97" class="cls-5" points="288.13 219.34 288.13 220.38 289.3 221.1 289.3 224.49 284.77 221.76 284.77 218.38 285.93 219.04 285.93 218.01 288.13 219.34"></polygon><polygon id="Path-98" class="cls-5" points="295.12 229.78 295.12 233.18 293.95 232.51 293.95 233.55 291.75 232.21 291.75 231.18 290.59 230.45 290.59 227.07 295.12 229.78"></polygon><polygon id="Path-99" class="cls-5" points="300.94 221.84 300.94 223.83 290.59 218.01 290.59 216.07 300.94 221.84"></polygon><polygon id="Path-100" class="cls-5" points="293.98 222.57 293.92 223.58 295.12 224.31 295.06 227.71 290.59 225.02 290.64 221.6 291.8 222.33 291.8 221.25 293.98 222.57"></polygon><polygon id="Path-101" class="cls-5" points="300.3 232.38 300.3 235.82 299.13 235.11 299.13 236.13 296.93 234.86 296.93 233.83 295.76 233.1 295.76 229.65 300.3 232.38"></polygon><polygon id="Path-102" class="cls-5" points="299.1 225.75 299.1 226.84 300.3 227.51 300.24 230.95 295.76 228.22 295.82 224.78 296.96 225.51 296.96 224.49 299.1 225.75"></polygon><polygon id="Path-103" class="cls-5" points="306.12 235.59 306.12 239 304.96 238.34 304.96 239.37 302.75 238.05 302.75 237.03 301.58 236.31 301.58 232.89 306.12 235.59"></polygon><polygon id="Path-104" class="cls-5" points="304.96 229.03 304.96 230.06 306.12 230.77 306.12 234.19 301.58 231.49 301.58 228.08 302.81 228.74 302.81 227.71 304.96 229.03"></polygon><polygon id="Path-105" class="cls-5" points="311.3 238.86 311.3 242.3 310.07 241.57 310.07 242.59 307.93 241.27 307.93 240.24 306.76 239.58 306.76 236.13 311.3 238.86"></polygon><polygon id="Path-106" class="cls-5" points="310.13 231.57 310.13 232.6 311.3 233.33 311.3 236.77 306.76 234.06 306.76 230.6 307.93 231.33 307.93 230.31 310.13 231.57"></polygon><polygon id="Path-107" class="cls-5" points="284.12 223.32 284.12 226.77 282.95 226.04 282.95 227.07 280.75 225.74 280.75 224.71 279.59 224.04 279.59 220.6 284.12 223.32"></polygon><polygon id="Path-108" class="cls-5" points="318.41 243.38 318.41 246.82 317.25 246.1 317.25 247.13 315.04 245.86 315.04 244.77 313.88 244.11 313.88 240.66 318.41 243.38"></polygon><polygon id="Path-109" class="cls-5" points="324.23 235.47 324.23 237.43 313.88 231.62 313.88 229.65 324.23 235.47"></polygon><polygon id="Path-110" class="cls-5" points="317.21 236.11 317.21 237.19 318.41 237.86 318.36 241.31 313.88 238.58 313.94 235.14 315.09 235.87 315.09 234.83 317.21 236.11"></polygon><polygon id="Path-111" class="cls-5" points="324.23 245.94 324.23 249.36 323.08 248.69 323.08 249.72 320.87 248.39 320.87 247.38 319.71 246.66 319.71 243.25 324.23 245.94"></polygon><polygon id="Path-112" class="cls-5" points="323.08 239.39 323.08 240.4 324.23 241.13 324.23 244.54 319.71 241.84 319.71 238.43 320.87 239.08 320.87 238.07 323.08 239.39"></polygon><polygon id="Path-113" class="cls-5" points="329.41 249.2 329.41 252.65 328.2 251.92 328.2 252.95 326.04 251.68 326.04 250.6 324.89 249.93 324.89 246.48 329.41 249.2"></polygon><polygon id="Path-114" class="cls-5" points="335.23 241.89 335.23 243.89 324.89 238.13 324.89 236.13 335.23 241.89"></polygon><polygon id="Path-115" class="cls-5" points="328.26 242.57 328.26 243.61 329.41 244.32 329.41 247.78 324.89 245.05 324.89 241.61 326.04 242.33 326.04 241.31 328.26 242.57"></polygon><polygon id="Path-116" class="cls-5" points="334.08 245.86 334.08 246.87 335.23 247.54 335.23 251.01 330.71 248.31 330.71 244.85 331.86 245.56 331.86 244.54 334.08 245.86"></polygon><polygon id="Path-117" class="cls-5" points="340.41 255.67 340.41 259.06 339.25 258.4 339.25 259.42 337.04 258.1 337.04 257.06 335.89 256.34 335.89 252.95 340.41 255.67"></polygon><polygon id="Path-118" class="cls-5" points="344.43 251.69 344.43 252.73 345.59 253.38 345.59 256.84 341.06 254.11 341.06 250.67 342.28 251.4 342.28 250.36 344.43 251.69"></polygon><polygon id="Path-119" class="cls-5" points="346.24 248.41 346.24 250.36 335.89 244.55 335.89 242.59 346.24 248.41"></polygon><polygon id="Path-120" class="cls-5" points="339.21 248.44 339.21 249.47 340.41 250.18 340.35 253.6 335.89 250.91 335.94 247.49 337.08 248.14 337.08 247.13 339.21 248.44"></polygon><polygon id="Path-121" class="cls-5" points="335.23 252.41 335.17 255.82 334.03 255.11 334.03 256.18 331.91 254.87 331.91 253.85 330.71 253.13 330.77 249.72 335.23 252.41"></polygon><polygon id="Path-122" class="cls-5" points="345.59 258.91 345.59 262.36 344.43 261.62 344.43 262.66 342.22 261.38 342.22 260.36 341.06 259.63 341.06 256.18 345.59 258.91"></polygon><polygon id="Path-123" class="cls-5" points="353.36 263.41 353.36 266.83 352.19 266.17 352.19 267.18 349.99 265.87 349.99 264.85 348.82 264.13 348.82 260.72 353.36 263.41"></polygon><polygon id="Path-124" class="cls-5" points="359.18 255.54 359.18 257.48 348.82 251.72 348.82 249.72 359.18 255.54"></polygon><polygon id="Path-125" class="cls-5" points="352.15 256.2 352.15 257.23 353.36 257.94 353.3 261.36 348.82 258.67 348.88 255.25 350.02 255.91 350.02 254.9 352.15 256.2"></polygon><polygon id="Path-126" class="cls-5" points="359.18 266.67 359.18 270.12 358.02 269.4 358.02 270.42 355.81 269.15 355.81 268.06 354.64 267.4 354.64 263.96 359.18 266.67"></polygon><polygon id="Path-127" class="cls-5" points="358.02 259.4 358.02 260.42 359.18 261.15 359.18 264.6 354.64 261.87 354.7 258.43 355.87 259.16 355.87 258.12 358.02 259.4"></polygon><polygon id="Path-128" class="cls-5" points="364.36 269.24 364.36 272.65 363.19 271.99 363.19 273.01 360.99 271.7 360.99 270.67 359.82 269.96 359.82 266.54 364.36 269.24"></polygon><polygon id="Path-129" class="cls-5" points="363.19 262.68 363.19 263.71 364.36 264.42 364.36 267.84 359.82 265.13 359.82 261.72 360.99 262.38 360.99 261.36 363.19 262.68"></polygon><polygon id="Path-130" class="cls-5" points="369.01 265.87 369.01 266.9 370.18 267.62 370.18 271.06 365.64 268.35 365.64 264.9 366.81 265.62 366.81 264.6 369.01 265.87"></polygon><polygon id="Path-131" class="cls-5" points="375.35 275.71 375.3 279.13 374.14 278.4 374.14 279.48 371.97 278.16 372.03 277.14 370.82 276.42 370.88 273.01 375.35 275.71"></polygon><polygon id="Path-132" class="cls-5" points="381.18 268.42 381.18 270.42 370.82 264.66 370.82 262.66 381.18 268.42"></polygon><polygon id="Path-133" class="cls-5" points="374.19 269.15 374.19 270.17 375.35 270.83 375.35 274.3 370.82 271.61 370.82 268.14 371.98 268.85 371.98 267.84 374.19 269.15"></polygon><polygon id="Path-134" class="cls-5" points="379.36 271.74 379.36 272.76 380.53 273.47 380.53 276.89 376 274.2 376 270.78 377.18 271.45 377.18 270.42 379.36 271.74"></polygon><polygon id="Path-135" class="cls-5" points="370.18 272.49 370.18 275.95 368.97 275.22 368.97 276.25 366.81 274.91 366.81 273.89 365.64 273.22 365.64 269.78 370.18 272.49"></polygon><polygon id="Path-136" class="cls-5" points="380.53 278.96 380.53 282.35 379.37 281.69 379.37 282.72 377.16 281.39 377.16 280.35 376 279.69 376 276.25 380.53 278.96"></polygon><polygon id="Path-137" class="cls-5" points="311.3 228.34 311.3 230.31 300.94 224.5 300.94 222.54 311.3 228.34"></polygon><polygon id="Path-138" class="cls-5" points="370.18 261.99 370.18 263.96 359.82 258.15 359.82 256.18 370.18 261.99"></polygon><polygon id="Path-139" class="cls-5" points="407.06 287.34 407.06 298.25 385.06 285.85 385.12 274.95 407.06 287.34"></polygon><polygon id="Path-140" class="cls-5" points="395.41 276.86 395.41 278.83 385.06 273.04 385.06 271.06 395.41 276.86"></polygon><polygon id="Path-141" class="cls-5" points="406.41 283.33 406.41 285.31 396.05 279.51 396.05 277.54 406.41 283.33"></polygon><path id="Path-142" class="cls-5" d="M409.64,286.15a2.82,2.82,0,0,1,1.3,2.16c0,.77-.56,1.1-1.3.71a2.88,2.88,0,0,1-1.29-2.15C408.35,286,409,285.71,409.64,286.15Z"></path><polygon id="Path-143" class="cls-3" points="238.82 180.49 238.7 209.6 230.41 204.48 230.47 175.31 238.82 180.49"></polygon><path id="Path-144" class="cls-6" d="M234.3,182.62a3,3,0,0,1,1.3,2.15c0,.79-.58,1.11-1.3.72a2.8,2.8,0,0,1-1.3-2.14C233,182.51,233.62,182.18,234.3,182.62Z"></path><path id="Path-145" class="cls-6" d="M234.3,199.41a3,3,0,0,1,1.3,2.18c0,.8-.58,1.12-1.3.72a2.85,2.85,0,0,1-1.3-2.18A.8.8,0,0,1,234.3,199.41Z"></path><polygon id="Path-146" class="cls-3" points="424.52 287.9 424.4 317.01 416.12 311.83 416.24 282.72 424.52 287.9"></polygon><path id="Path-147" class="cls-6" d="M420.64,290a2.87,2.87,0,0,1,1.3,2.17c0,.79-.56,1.12-1.3.73a2.87,2.87,0,0,1-1.28-2.17C419.4,289.9,420,289.62,420.64,290Z"></path><path id="Path-148" class="cls-6" d="M420.64,306.83a2.87,2.87,0,0,1,1.3,2.17c0,.79-.56,1.12-1.3.73a2.87,2.87,0,0,1-1.28-2.17C419.4,306.71,420,306.44,420.64,306.83Z"></path><polygon id="Path-149" class="cls-3" points="416.12 369.56 416.06 398.54 238.82 296.18 238.88 267.18 416.12 369.56"></polygon><polygon id="Path-150" class="cls-5" points="249.18 289.94 249.12 293.36 247.98 292.7 247.98 293.71 245.85 292.4 245.85 291.38 244.64 290.65 244.7 287.25 249.18 289.94"></polygon><polygon id="Path-151" class="cls-5" points="248.01 282.75 248.01 283.76 249.18 284.48 249.18 287.89 244.64 285.2 244.64 281.78 245.81 282.44 245.81 281.42 248.01 282.75"></polygon><polygon id="Path-152" class="cls-5" points="253.85 285.93 253.85 286.95 255 287.68 255 291.13 250.47 288.4 250.47 284.96 251.63 285.69 251.63 284.66 253.85 285.93"></polygon><polygon id="Path-153" class="cls-5" points="259.02 289.21 259.02 290.22 260.17 290.95 260.17 294.37 255.65 291.66 255.71 288.25 256.86 288.91 256.86 287.89 259.02 289.21"></polygon><polygon id="Path-154" class="cls-5" points="265.35 299.02 265.35 302.48 264.2 301.75 264.2 302.77 261.99 301.45 261.99 300.42 260.83 299.75 260.83 296.31 265.35 299.02"></polygon><polygon id="Path-155" class="cls-5" points="264.2 292.44 264.2 293.46 265.35 294.18 265.35 297.59 260.83 294.9 260.83 291.49 261.99 292.2 261.99 291.13 264.2 292.44"></polygon><polygon id="Path-156" class="cls-5" points="270.02 295.05 270.02 296.08 271.17 296.75 271.17 300.19 266.65 297.46 266.65 294.02 267.8 294.75 267.8 293.71 270.02 295.05"></polygon><polygon id="Path-157" class="cls-5" points="276.35 305.46 276.29 308.88 275.15 308.23 275.15 309.25 273.03 307.93 273.03 306.9 271.83 306.19 271.88 302.77 276.35 305.46"></polygon><polygon id="Path-158" class="cls-5" points="275.2 298.27 275.2 299.29 276.35 300.01 276.35 303.43 271.83 300.73 271.83 297.31 272.98 297.98 272.98 296.95 275.2 298.27"></polygon><polygon id="Path-159" class="cls-5" points="255 293.2 255 296.65 253.84 295.93 253.84 296.95 251.63 295.62 251.63 294.59 250.47 293.93 250.47 290.49 255 293.2"></polygon><polygon id="Path-160" class="cls-5" points="260.17 295.77 260.17 299.19 259.02 298.52 259.02 299.54 256.81 298.23 256.81 297.2 255.65 296.49 255.65 293.07 260.17 295.77"></polygon><polygon id="Path-161" class="cls-5" points="271.17 302.24 271.17 305.65 270.02 304.93 269.96 306.01 267.8 304.69 267.8 303.68 266.65 302.95 266.65 299.54 271.17 302.24"></polygon><polygon id="Path-162" class="cls-5" points="282.95 302.8 282.95 303.82 284.12 304.48 284.12 307.95 279.59 305.26 279.59 301.85 280.75 302.5 280.75 301.48 282.95 302.8"></polygon><polygon id="Path-163" class="cls-5" points="289.3 313.26 289.24 316.7 288.08 315.98 288.08 317.01 285.93 315.68 285.93 314.64 284.77 313.99 284.77 310.54 289.3 313.26"></polygon><polygon id="Path-164" class="cls-5" points="289.94 302.07 289.94 304.07 279.59 298.25 279.59 296.31 289.94 302.07"></polygon><polygon id="Path-165" class="cls-5" points="288.13 305.99 288.13 307.01 289.3 307.74 289.3 311.19 284.77 308.46 284.77 305.02 285.93 305.75 285.93 304.71 288.13 305.99"></polygon><polygon id="Path-166" class="cls-5" points="295.12 315.85 295.12 319.3 293.95 318.57 293.95 319.6 291.75 318.32 291.75 317.3 290.59 316.57 290.59 313.13 295.12 315.85"></polygon><polygon id="Path-167" class="cls-5" points="300.94 308.58 300.94 310.54 290.59 304.73 290.59 302.77 300.94 308.58"></polygon><polygon id="Path-168" class="cls-5" points="293.98 309.29 293.92 310.31 295.12 310.98 295.06 314.42 290.59 311.7 290.64 308.25 291.8 308.98 291.8 307.95 293.98 309.29"></polygon><polygon id="Path-169" class="cls-5" points="300.3 319.06 300.3 322.48 299.13 321.82 299.13 322.84 296.93 321.51 296.93 320.5 295.76 319.78 295.76 316.36 300.3 319.06"></polygon><polygon id="Path-170" class="cls-5" points="299.1 312.5 299.1 313.53 300.3 314.24 300.24 317.66 295.76 314.95 295.82 311.55 296.96 312.26 296.96 311.19 299.1 312.5"></polygon><polygon id="Path-171" class="cls-5" points="306.12 322.32 306.12 325.77 304.96 325.04 304.96 326.06 302.75 324.8 302.75 323.78 301.58 323.05 301.58 319.6 306.12 322.32"></polygon><polygon id="Path-172" class="cls-5" points="304.96 315.05 304.96 316.13 306.12 316.8 306.12 320.24 301.58 317.53 301.58 314.07 302.81 314.8 302.81 313.78 304.96 315.05"></polygon><polygon id="Path-173" class="cls-5" points="311.3 325.53 311.3 328.94 310.07 328.29 310.07 329.3 307.93 327.98 307.93 326.97 306.76 326.24 306.76 322.84 311.3 325.53"></polygon><polygon id="Path-174" class="cls-5" points="310.13 318.32 310.13 319.35 311.3 320.06 311.3 323.48 306.76 320.79 306.76 317.37 307.93 318.03 307.93 317.01 310.13 318.32"></polygon><polygon id="Path-175" class="cls-5" points="284.12 310 284.12 313.42 282.95 312.69 282.95 313.78 280.75 312.45 280.75 311.44 279.59 310.72 279.59 307.31 284.12 310"></polygon><polygon id="Path-176" class="cls-5" points="318.41 329.41 318.41 332.83 317.25 332.17 317.25 333.18 315.04 331.86 315.04 330.85 313.88 330.12 313.88 326.72 318.41 329.41"></polygon><polygon id="Path-177" class="cls-5" points="324.23 322.13 324.23 324.12 313.88 318.36 313.88 316.36 324.23 322.13"></polygon><polygon id="Path-178" class="cls-5" points="317.21 322.86 317.21 323.88 318.41 324.6 318.36 328 313.88 325.31 313.94 321.9 315.09 322.56 315.09 321.54 317.21 322.86"></polygon><polygon id="Path-179" class="cls-5" points="324.23 332.67 324.23 336.11 323.08 335.39 323.08 336.42 320.87 335.09 320.87 334.06 319.71 333.4 319.71 329.94 324.23 332.67"></polygon><polygon id="Path-180" class="cls-5" points="323.08 326.04 323.08 327.08 324.23 327.79 324.23 331.24 319.71 328.52 319.71 325.07 320.87 325.8 320.87 324.78 323.08 326.04"></polygon><polygon id="Path-181" class="cls-5" points="329.41 335.89 329.41 339.29 328.2 338.58 328.2 339.66 326.04 338.34 326.04 337.33 324.89 336.6 324.89 333.18 329.41 335.89"></polygon><polygon id="Path-182" class="cls-5" points="335.23 328.64 335.23 330.6 324.89 324.79 324.89 322.84 335.23 328.64"></polygon><polygon id="Path-183" class="cls-5" points="328.26 329.33 328.26 330.35 329.41 331 329.41 334.48 324.89 331.78 324.89 328.37 326.04 329.03 326.04 328 328.26 329.33"></polygon><polygon id="Path-184" class="cls-5" points="334.08 331.86 334.08 332.9 335.23 333.63 335.23 337.07 330.71 334.35 330.71 330.9 331.86 331.62 331.86 330.6 334.08 331.86"></polygon><polygon id="Path-185" class="cls-5" points="340.41 342.35 340.41 345.77 339.25 345.04 339.25 346.13 337.04 344.81 337.04 343.79 335.89 343.08 335.89 339.66 340.41 342.35"></polygon><polygon id="Path-186" class="cls-5" points="344.43 338.39 344.43 339.41 345.59 340.13 345.59 343.54 341.06 340.84 341.06 337.42 342.28 338.09 342.28 337.07 344.43 338.39"></polygon><polygon id="Path-187" class="cls-5" points="346.24 335.06 346.24 337.07 335.89 331.3 335.89 329.3 346.24 335.06"></polygon><polygon id="Path-188" class="cls-5" points="339.21 335.16 339.21 336.2 340.41 336.86 340.35 340.3 335.89 337.59 335.94 334.14 337.08 334.86 337.08 333.83 339.21 335.16"></polygon><polygon id="Path-189" class="cls-5" points="335.23 339.15 335.17 342.59 334.03 341.86 334.03 342.89 331.91 341.57 331.91 340.53 330.71 339.88 330.77 336.42 335.23 339.15"></polygon><polygon id="Path-190" class="cls-5" points="345.59 345.65 345.59 349.01 344.43 348.34 344.43 349.37 342.22 348.04 342.22 347.02 341.06 346.31 341.06 342.89 345.59 345.65"></polygon><polygon id="Path-191" class="cls-5" points="353.36 350.14 353.36 353.59 352.19 352.87 352.19 353.89 349.99 352.63 349.99 351.59 348.82 350.87 348.82 347.43 353.36 350.14"></polygon><polygon id="Path-192" class="cls-5" points="359.18 342.23 359.18 344.19 348.82 338.38 348.82 336.42 359.18 342.23"></polygon><polygon id="Path-193" class="cls-5" points="352.15 342.92 352.15 343.95 353.36 344.62 353.3 348.07 348.82 345.34 348.88 341.9 350.02 342.63 350.02 341.6 352.15 342.92"></polygon><polygon id="Path-194" class="cls-5" points="359.18 352.71 359.18 356.12 358.02 355.46 358.02 356.49 355.81 355.16 355.81 354.14 354.64 353.43 354.64 350.01 359.18 352.71"></polygon><polygon id="Path-195" class="cls-5" points="358.02 346.15 358.02 347.18 359.18 347.89 359.18 351.31 354.64 348.6 354.7 345.19 355.87 345.85 355.87 344.83 358.02 346.15"></polygon><polygon id="Path-196" class="cls-5" points="364.36 355.96 364.36 359.42 363.19 358.69 363.19 359.71 360.99 358.44 360.99 357.36 359.82 356.69 359.82 353.25 364.36 355.96"></polygon><polygon id="Path-197" class="cls-5" points="363.19 349.34 363.19 350.43 364.36 351.09 364.36 354.55 359.82 351.82 359.82 348.38 360.99 349.1 360.99 348.07 363.19 349.34"></polygon><polygon id="Path-198" class="cls-5" points="369.01 352.63 369.01 353.64 370.18 354.3 370.18 357.77 365.64 355.02 365.64 351.6 366.81 352.32 366.81 351.31 369.01 352.63"></polygon><polygon id="Path-199" class="cls-5" points="375.35 362.44 375.3 365.88 374.14 365.15 374.14 366.19 371.97 364.86 372.03 363.82 370.82 363.15 370.88 359.71 375.35 362.44"></polygon><polygon id="Path-200" class="cls-5" points="381.18 355.16 381.18 357.13 370.82 351.32 370.82 349.37 381.18 355.16"></polygon><polygon id="Path-201" class="cls-5" points="374.19 355.21 374.19 356.22 375.35 356.95 375.35 360.37 370.82 357.67 370.82 354.25 371.98 354.97 371.98 353.89 374.19 355.21"></polygon><polygon id="Path-202" class="cls-5" points="379.36 358.45 379.36 359.49 380.53 360.15 380.53 363.6 376 360.88 376 357.43 377.18 358.15 377.18 357.13 379.36 358.45"></polygon><polygon id="Path-203" class="cls-5" points="370.18 359.18 370.18 362.59 368.97 361.87 368.97 362.95 366.81 361.63 366.81 360.61 365.64 359.89 365.64 356.49 370.18 359.18"></polygon><polygon id="Path-204" class="cls-5" points="380.53 365.68 380.53 369.12 379.37 368.39 379.37 369.42 377.16 368.15 377.16 367.13 376 366.4 376 362.95 380.53 365.68"></polygon><polygon id="Path-205" class="cls-5" points="311.3 315.01 311.3 317.01 300.94 311.19 300.94 309.25 311.3 315.01"></polygon><polygon id="Path-206" class="cls-5" points="370.18 348.65 370.18 350.65 359.82 344.89 359.82 342.89 370.18 348.65"></polygon><polygon id="Path-207" class="cls-5" points="407.06 374.01 407.06 384.96 385.06 372.58 385.12 361.65 407.06 374.01"></polygon><polygon id="Path-208" class="cls-5" points="395.41 363.62 395.41 365.54 385.06 359.7 385.06 357.77 395.41 363.62"></polygon><polygon id="Path-209" class="cls-5" points="406.41 370.08 406.41 372.01 396.05 366.18 396.05 364.25 406.41 370.08"></polygon><path id="Path-210" class="cls-5" d="M409.64,372.82a2.87,2.87,0,0,1,1.3,2.18c0,.79-.56,1.12-1.3.73a2.93,2.93,0,0,1-1.29-2.18.8.8,0,0,1,.65-.91A.82.82,0,0,1,409.64,372.82Z"></path><polygon id="Path-211" class="cls-3" points="238.82 267.19 238.7 296.31 230.41 291.13 230.47 262.02 238.82 267.19"></polygon><path id="Path-212" class="cls-6" d="M234.3,269.29a3,3,0,0,1,1.3,2.18c0,.79-.58,1.12-1.3.73A2.87,2.87,0,0,1,233,270,.8.8,0,0,1,234.3,269.29Z"></path><path id="Path-213" class="cls-6" d="M234.26,286.12a2.91,2.91,0,0,1,1.34,2.17c0,.79-.59,1.12-1.34.73a2.83,2.83,0,0,1-1.26-2.18C233,286.06,233.57,285.72,234.26,286.12Z"></path><polygon id="Path-214" class="cls-3" points="424.52 374.61 424.4 403.71 416.12 398.53 416.24 369.42 424.52 374.61"></polygon><path id="Path-215" class="cls-6" d="M420.64,376.7a2.89,2.89,0,0,1,1.3,2.18c0,.79-.56,1.12-1.3.73a2.88,2.88,0,0,1-1.28-2.18C419.4,376.64,420,376.31,420.64,376.7Z"></path><path id="Path-216" class="cls-6" d="M420.64,394.17a2.87,2.87,0,0,1,1.3,2.18c0,.79-.56,1.12-1.3.73a2.89,2.89,0,0,1-1.28-2.18C419.4,394.11,420,393.78,420.64,394.17Z"></path><polygon id="Path-217" class="cls-3" points="416.12 398.01 416.06 427.01 238.82 324.65 238.88 295.65 416.12 398.01"></polygon><polygon id="Path-218" class="cls-5" points="249.18 318.44 249.12 321.88 247.98 321.16 247.98 322.18 245.85 320.92 245.85 319.82 244.64 319.16 244.7 315.72 249.18 318.44"></polygon><polygon id="Path-219" class="cls-5" points="248.01 311.17 248.01 312.25 249.18 312.92 249.18 316.36 244.64 313.64 244.64 310.19 245.81 310.92 245.81 309.89 248.01 311.17"></polygon><polygon id="Path-220" class="cls-5" points="253.85 314.44 253.85 315.47 255 316.18 255 319.6 250.47 316.91 250.47 313.49 251.63 314.14 251.63 313.13 253.85 314.44"></polygon><polygon id="Path-221" class="cls-5" points="259.02 317.68 259.02 318.69 260.17 319.42 260.17 322.84 255.65 320.13 255.71 316.72 256.86 317.44 256.86 316.36 259.02 317.68"></polygon><polygon id="Path-222" class="cls-5" points="265.35 327.49 265.35 330.95 264.2 330.22 264.2 331.24 261.99 329.98 261.99 328.94 260.83 328.22 260.83 324.78 265.35 327.49"></polygon><polygon id="Path-223" class="cls-5" points="264.2 320.93 264.2 321.96 265.35 322.62 265.35 326.06 260.83 323.41 260.83 319.9 261.99 320.62 261.99 319.6 264.2 320.93"></polygon><polygon id="Path-224" class="cls-5" points="270.02 324.15 270.02 325.17 271.17 325.88 271.17 329.3 266.65 326.61 266.65 323.19 267.8 323.92 267.8 322.84 270.02 324.15"></polygon><polygon id="Path-225" class="cls-5" points="276.35 333.97 276.29 337.41 275.15 336.69 275.15 337.72 273.03 336.45 273.03 335.42 271.83 334.7 271.88 331.24 276.35 333.97"></polygon><polygon id="Path-226" class="cls-5" points="275.2 327.34 275.2 328.43 276.35 329.1 276.35 332.54 271.83 329.81 271.83 326.37 272.98 327.1 272.98 326.06 275.2 327.34"></polygon><polygon id="Path-227" class="cls-5" points="255 321.65 255 325.06 253.84 324.41 253.84 325.42 251.63 324.1 251.63 323.09 250.47 322.36 250.47 318.95 255 321.65"></polygon><polygon id="Path-228" class="cls-5" points="260.17 324.91 260.17 328.35 259.02 327.62 259.02 328.66 256.81 327.33 256.81 326.3 255.65 325.63 255.65 322.18 260.17 324.91"></polygon><polygon id="Path-229" class="cls-5" points="271.17 330.71 271.17 334.13 270.02 333.46 269.96 334.48 267.8 333.16 267.8 332.15 266.65 331.42 266.65 328 271.17 330.71"></polygon><polygon id="Path-230" class="cls-5" points="282.95 331.22 282.95 332.25 284.12 332.98 284.12 336.42 279.59 333.71 279.59 330.25 280.75 330.98 280.75 329.94 282.95 331.22"></polygon><polygon id="Path-231" class="cls-5" points="289.3 341.7 289.24 345.12 288.08 344.4 288.08 345.48 285.93 344.16 285.93 343.14 284.77 342.42 284.77 339.01 289.3 341.7"></polygon><polygon id="Path-232" class="cls-5" points="289.94 331.23 289.94 333.18 279.59 327.37 279.59 325.42 289.94 331.23"></polygon><polygon id="Path-233" class="cls-5" points="288.13 334.51 288.13 335.53 289.3 336.19 289.3 339.66 284.77 336.96 284.77 333.48 285.93 334.21 285.93 333.18 288.13 334.51"></polygon><polygon id="Path-234" class="cls-5" points="295.12 344.96 295.12 348.41 293.95 347.69 293.95 348.71 291.75 347.39 291.75 346.35 290.59 345.63 290.59 342.25 295.12 344.96"></polygon><polygon id="Path-235" class="cls-5" points="300.94 337.05 300.94 339.01 290.59 333.21 290.59 331.24 300.94 337.05"></polygon><polygon id="Path-236" class="cls-5" points="293.98 337.74 293.92 338.76 295.12 339.47 295.06 342.89 290.59 340.2 290.64 336.78 291.8 337.45 291.8 336.42 293.98 337.74"></polygon><polygon id="Path-237" class="cls-5" points="300.3 347.56 300.3 351.01 299.13 350.28 299.13 351.31 296.93 350.03 296.93 348.95 295.76 348.28 295.76 344.83 300.3 347.56"></polygon><polygon id="Path-238" class="cls-5" points="299.1 340.92 299.1 342.01 300.3 342.67 300.24 346.13 295.76 343.4 295.82 339.96 296.96 340.69 296.96 339.66 299.1 340.92"></polygon><polygon id="Path-239" class="cls-5" points="306.12 350.77 306.12 354.18 304.96 353.52 304.96 354.55 302.75 353.22 302.75 352.2 301.58 351.49 301.58 348.07 306.12 350.77"></polygon><polygon id="Path-240" class="cls-5" points="304.96 344.21 304.96 345.22 306.12 345.95 306.12 349.37 301.58 346.66 301.58 343.26 302.81 343.91 302.81 342.89 304.96 344.21"></polygon><polygon id="Path-241" class="cls-5" points="311.3 354.03 311.3 357.47 310.07 356.75 310.07 357.77 307.93 356.44 307.93 355.42 306.76 354.75 306.76 351.31 311.3 354.03"></polygon><polygon id="Path-242" class="cls-5" points="310.13 347.4 310.13 348.43 311.3 349.15 311.3 352.6 306.76 349.88 306.76 346.43 307.93 347.15 307.93 346.13 310.13 347.4"></polygon><polygon id="Path-243" class="cls-5" points="284.12 338.5 284.12 341.94 282.95 341.22 282.95 342.25 280.75 340.91 280.75 339.89 279.59 339.22 279.59 335.78 284.12 338.5"></polygon><polygon id="Path-244" class="cls-5" points="318.41 358.56 318.41 362 317.25 361.27 317.25 362.31 315.04 361.04 315.04 359.94 313.88 359.27 313.88 355.83 318.41 358.56"></polygon><polygon id="Path-245" class="cls-5" points="324.23 350.64 324.23 352.6 313.88 346.79 313.88 344.83 324.23 350.64"></polygon><polygon id="Path-246" class="cls-5" points="317.21 351.28 317.21 352.31 318.41 353.03 318.36 356.49 313.88 353.76 313.94 350.32 315.09 351.05 315.09 350.01 317.21 351.28"></polygon><polygon id="Path-247" class="cls-5" points="324.23 361.12 324.23 364.54 323.08 363.87 323.08 364.89 320.87 363.57 320.87 362.56 319.71 361.83 319.71 358.43 324.23 361.12"></polygon><polygon id="Path-248" class="cls-5" points="323.08 354.57 323.08 355.58 324.23 356.31 324.23 359.71 319.71 357.02 319.71 353.61 320.87 354.26 320.87 353.25 323.08 354.57"></polygon><polygon id="Path-249" class="cls-5" points="329.41 364.38 329.41 367.82 328.2 367.1 328.2 368.13 326.04 366.8 326.04 365.76 324.89 365.11 324.89 361.65 329.41 364.38"></polygon><polygon id="Path-250" class="cls-5" points="335.23 357.07 335.23 359.07 324.89 353.31 324.89 351.31 335.23 357.07"></polygon><polygon id="Path-251" class="cls-5" points="328.26 357.8 328.26 358.82 329.41 359.53 329.41 362.95 324.89 360.25 324.89 356.84 326.04 357.56 326.04 356.49 328.26 357.8"></polygon><polygon id="Path-252" class="cls-5" points="334.08 361.05 334.08 362.07 335.23 362.74 335.23 366.19 330.71 363.46 330.71 360.02 331.86 360.74 331.86 359.71 334.08 361.05"></polygon><polygon id="Path-253" class="cls-5" points="340.41 370.85 340.41 374.24 339.25 373.57 339.25 374.6 337.04 373.27 337.04 372.24 335.89 371.51 335.89 368.13 340.41 370.85"></polygon><polygon id="Path-254" class="cls-5" points="344.43 366.87 344.43 367.89 345.59 368.56 345.59 372.01 341.06 369.29 341.06 365.85 342.28 366.57 342.28 365.54 344.43 366.87"></polygon><polygon id="Path-255" class="cls-5" points="346.24 363.58 346.24 365.54 335.89 359.73 335.89 357.77 346.24 363.58"></polygon><polygon id="Path-256" class="cls-5" points="339.21 363.62 339.21 364.64 340.41 365.36 340.35 368.77 335.89 366.08 335.94 362.67 337.08 363.32 337.08 362.31 339.21 363.62"></polygon><polygon id="Path-257" class="cls-5" points="335.23 367.58 335.17 371 334.03 370.27 334.03 371.36 331.91 370.05 331.91 369.02 330.71 368.31 330.77 364.89 335.23 367.58"></polygon><polygon id="Path-258" class="cls-5" points="345.59 374.08 345.59 377.53 344.43 376.8 344.43 377.83 342.22 376.56 342.22 375.54 341.06 374.81 341.06 371.36 345.59 374.08"></polygon><polygon id="Path-259" class="cls-5" points="353.36 378.59 353.36 382 352.19 381.35 352.19 382.36 349.99 381.05 349.99 380.03 348.82 379.31 348.82 375.89 353.36 378.59"></polygon><polygon id="Path-260" class="cls-5" points="359.18 371.36 359.18 373.3 348.82 367.54 348.82 365.54 359.18 371.36"></polygon><polygon id="Path-261" class="cls-5" points="352.15 371.38 352.15 372.41 353.36 373.12 353.3 376.54 348.82 373.85 348.88 370.43 350.02 371.08 350.02 370.07 352.15 371.38"></polygon><polygon id="Path-262" class="cls-5" points="359.18 381.85 359.18 385.3 358.02 384.56 358.02 385.6 355.81 384.26 355.81 383.24 354.64 382.57 354.64 379.12 359.18 381.85"></polygon><polygon id="Path-263" class="cls-5" points="358.02 374.57 358.02 375.6 359.18 376.32 359.18 379.78 354.64 377.05 354.7 373.61 355.87 374.33 355.87 373.3 358.02 374.57"></polygon><polygon id="Path-264" class="cls-5" points="364.36 384.41 364.36 387.82 363.19 387.17 363.19 388.18 360.99 386.86 360.99 385.85 359.82 385.13 359.82 381.72 364.36 384.41"></polygon><polygon id="Path-265" class="cls-5" points="363.19 377.86 363.19 378.88 364.36 379.6 364.36 383 359.82 380.31 359.82 376.89 360.99 377.56 360.99 376.54 363.19 377.86"></polygon><polygon id="Path-266" class="cls-5" points="369.01 381.1 369.01 382.11 370.18 382.84 370.18 386.24 365.64 383.55 365.64 380.13 366.81 380.85 366.81 379.78 369.01 381.1"></polygon><polygon id="Path-267" class="cls-5" points="375.35 390.89 375.3 394.3 374.14 393.58 374.14 394.66 371.97 393.34 372.03 392.31 370.82 391.6 370.88 388.18 375.35 390.89"></polygon><polygon id="Path-268" class="cls-5" points="381.18 383.6 381.18 385.6 370.82 379.82 370.82 377.83 381.18 383.6"></polygon><polygon id="Path-269" class="cls-5" points="374.19 384.34 374.19 385.36 375.35 386.03 375.35 389.48 370.82 386.75 370.82 383.31 371.98 384.04 371.98 383 374.19 384.34"></polygon><polygon id="Path-270" class="cls-5" points="379.36 386.91 379.36 387.93 380.53 388.65 380.53 392.06 376 389.37 376 385.96 377.18 386.62 377.18 385.6 379.36 386.91"></polygon><polygon id="Path-271" class="cls-5" points="370.18 387.67 370.18 391.11 368.97 390.4 368.97 391.42 366.81 390.09 366.81 389.06 365.64 388.4 365.64 384.96 370.18 387.67"></polygon><polygon id="Path-272" class="cls-5" points="380.53 394.15 380.53 397.53 379.37 396.86 379.37 397.89 377.16 396.56 377.16 395.53 376 394.8 376 391.42 380.53 394.15"></polygon><polygon id="Path-273" class="cls-5" points="311.3 343.52 311.3 345.48 300.94 339.67 300.94 337.72 311.3 343.52"></polygon><polygon id="Path-274" class="cls-5" points="370.18 377.17 370.18 379.12 359.82 373.32 359.82 371.36 370.18 377.17"></polygon><polygon id="Path-275" class="cls-5" points="407.06 402.46 407.06 413.43 385.06 401.03 385.12 390.12 407.06 402.46"></polygon><polygon id="Path-276" class="cls-5" points="395.41 392.04 395.41 394 385.06 388.22 385.06 386.24 395.41 392.04"></polygon><polygon id="Path-277" class="cls-5" points="406.41 398.51 406.41 400.48 396.05 394.68 396.05 392.72 406.41 398.51"></polygon><path id="Path-278" class="cls-5" d="M409.64,401.33a2.8,2.8,0,0,1,1.3,2.15c0,.78-.56,1.11-1.3.72a2.88,2.88,0,0,1-1.29-2.16C408.35,401.2,409,400.89,409.64,401.33Z"></path><polygon id="Path-279" class="cls-3" points="238.82 295.62 238.7 324.78 230.41 319.65 230.47 290.49 238.82 295.62"></polygon><path id="Path-280" class="cls-6" d="M234.3,297.8a2.93,2.93,0,0,1,1.3,2.15c0,.79-.58,1.11-1.3.72a2.83,2.83,0,0,1-1.3-2.16C233,297.69,233.62,297.36,234.3,297.8Z"></path><path id="Path-281" class="cls-6" d="M234.3,314.59a3,3,0,0,1,1.3,2.17c0,.79-.58,1.12-1.3.73a2.87,2.87,0,0,1-1.3-2.18A.8.8,0,0,1,234.3,314.59Z"></path><polygon id="Path-282" class="cls-3" points="424.52 403.03 424.4 432.19 416.12 427.06 416.24 397.89 424.52 403.03"></polygon><path id="Path-283" class="cls-6" d="M420.64,405.19a2.83,2.83,0,0,1,1.3,2.16c0,.79-.56,1.12-1.3.73a2.88,2.88,0,0,1-1.28-2.18C419.4,405.08,420,404.79,420.64,405.19Z"></path><path id="Path-284" class="cls-6" d="M420.64,422.68a2.8,2.8,0,0,1,1.3,2.15c0,.79-.56,1.11-1.3.72a2.82,2.82,0,0,1-1.28-2.15C419.4,422.57,420,422.21,420.64,422.68Z"></path><polygon id="Path-285" class="cls-3" points="416.12 340.44 416.06 369.42 238.82 267.05 238.88 238.07 416.12 340.44"></polygon><polygon id="Path-286" class="cls-5" points="249.18 260.82 249.12 264.24 247.98 263.58 247.98 264.6 245.85 263.28 245.85 262.27 244.64 261.54 244.7 258.12 249.18 260.82"></polygon><polygon id="Path-287" class="cls-5" points="248.01 253.62 248.01 254.63 249.18 255.36 249.18 258.78 244.64 256.07 244.64 252.67 245.81 253.32 245.81 252.3 248.01 253.62"></polygon><polygon id="Path-288" class="cls-5" points="253.85 256.86 253.85 257.93 255 258.6 255 262.02 250.47 259.31 250.47 255.9 251.63 256.62 251.63 255.54 253.85 256.86"></polygon><polygon id="Path-289" class="cls-5" points="259.02 260.11 259.02 261.13 260.17 261.8 260.17 265.24 255.65 262.53 255.71 259.07 256.86 259.8 256.86 258.78 259.02 260.11"></polygon><polygon id="Path-290" class="cls-5" points="265.35 269.91 265.35 273.29 264.2 272.63 264.2 273.66 261.99 272.33 261.99 271.3 260.83 270.58 260.83 267.18 265.35 269.91"></polygon><polygon id="Path-291" class="cls-5" points="264.2 263.33 264.2 264.35 265.35 265.06 265.35 268.48 260.83 265.79 260.83 262.37 261.99 263.09 261.99 262.02 264.2 263.33"></polygon><polygon id="Path-292" class="cls-5" points="270.02 266.58 270.02 267.6 271.17 268.27 271.17 271.72 266.65 268.99 266.65 265.55 267.8 266.28 267.8 265.24 270.02 266.58"></polygon><polygon id="Path-293" class="cls-5" points="276.35 276.35 276.29 279.77 275.15 279.11 275.15 280.13 273.03 278.81 273.03 277.79 271.83 277.08 271.88 273.66 276.35 276.35"></polygon><polygon id="Path-294" class="cls-5" points="275.2 269.8 275.2 270.81 276.35 271.54 276.35 274.95 271.83 272.26 271.83 268.84 272.98 269.5 272.98 268.48 275.2 269.8"></polygon><polygon id="Path-295" class="cls-5" points="255 264.09 255 267.53 253.84 266.81 253.84 267.84 251.63 266.56 251.63 265.48 250.47 264.81 250.47 261.36 255 264.09"></polygon><polygon id="Path-296" class="cls-5" points="260.17 267.29 260.17 270.71 259.02 270.05 259.02 271.06 256.81 269.75 256.81 268.73 255.65 268.02 255.65 264.6 260.17 267.29"></polygon><polygon id="Path-297" class="cls-5" points="271.17 273.14 271.17 276.59 270.02 275.86 269.96 276.89 267.8 275.63 267.8 274.59 266.65 273.86 266.65 270.42 271.17 273.14"></polygon><polygon id="Path-298" class="cls-5" points="282.95 273.69 282.95 274.7 284.12 275.36 284.12 278.83 279.59 276.14 279.59 272.72 280.75 273.39 280.75 272.36 282.95 273.69"></polygon><polygon id="Path-299" class="cls-5" points="289.3 284.15 289.24 287.59 288.08 286.87 288.08 287.89 285.93 286.57 285.93 285.53 284.77 284.87 284.77 281.42 289.3 284.15"></polygon><polygon id="Path-300" class="cls-5" points="289.94 273.6 289.94 275.6 279.59 269.78 279.59 267.84 289.94 273.6"></polygon><polygon id="Path-301" class="cls-5" points="288.13 276.91 288.13 277.94 289.3 278.65 289.3 282.07 284.77 279.38 284.77 275.96 285.93 276.67 285.93 275.6 288.13 276.91"></polygon><polygon id="Path-302" class="cls-5" points="295.12 287.35 295.12 290.76 293.95 290.05 293.95 291.13 291.75 289.81 291.75 288.8 290.59 288.07 290.59 284.66 295.12 287.35"></polygon><polygon id="Path-303" class="cls-5" points="300.94 279.46 300.94 281.42 290.59 275.61 290.59 273.66 300.94 279.46"></polygon><polygon id="Path-304" class="cls-5" points="293.98 280.16 293.92 281.19 295.12 281.85 295.06 285.31 290.59 282.58 290.64 279.13 291.8 279.86 291.8 278.83 293.98 280.16"></polygon><polygon id="Path-305" class="cls-5" points="300.3 289.95 300.3 293.36 299.13 292.7 299.13 293.71 296.93 292.4 296.93 291.38 295.76 290.66 295.76 287.25 300.3 289.95"></polygon><polygon id="Path-306" class="cls-5" points="299.1 283.39 299.1 284.4 300.3 285.13 300.24 288.55 295.76 285.84 295.82 282.42 296.96 283.09 296.96 282.07 299.1 283.39"></polygon><polygon id="Path-307" class="cls-5" points="306.12 293.2 306.12 296.65 304.96 295.93 304.96 296.95 302.75 295.68 302.75 294.59 301.58 293.93 301.58 290.49 306.12 293.2"></polygon><polygon id="Path-308" class="cls-5" points="304.96 286.58 304.96 287.6 306.12 288.33 306.12 291.77 301.58 289.06 301.58 285.6 302.81 286.33 302.81 285.31 304.96 286.58"></polygon><polygon id="Path-309" class="cls-5" points="311.3 296.42 311.3 299.83 310.07 299.17 310.07 300.19 307.93 298.87 307.93 297.84 306.76 297.13 306.76 293.71 311.3 296.42"></polygon><polygon id="Path-310" class="cls-5" points="310.13 289.85 310.13 290.88 311.3 291.59 311.3 295.01 306.76 292.32 306.76 288.9 307.93 289.56 307.93 288.55 310.13 289.85"></polygon><polygon id="Path-311" class="cls-5" points="284.12 280.88 284.12 284.29 282.95 283.58 282.95 284.66 280.75 283.34 280.75 282.32 279.59 281.6 279.59 278.19 284.12 280.88"></polygon><polygon id="Path-312" class="cls-5" points="318.41 300.94 318.41 304.36 317.25 303.7 317.25 304.71 315.04 303.39 315.04 302.38 313.88 301.65 313.88 298.25 318.41 300.94"></polygon><polygon id="Path-313" class="cls-5" points="324.23 293.07 324.23 295.01 313.88 289.25 313.88 287.25 324.23 293.07"></polygon><polygon id="Path-314" class="cls-5" points="317.21 293.75 317.21 294.76 318.41 295.48 318.36 298.89 313.88 296.2 313.94 292.78 315.09 293.44 315.09 292.43 317.21 293.75"></polygon><polygon id="Path-315" class="cls-5" points="324.23 304.2 324.23 307.64 323.08 306.93 323.08 307.95 320.87 306.62 320.87 305.6 319.71 304.93 319.71 301.48 324.23 304.2"></polygon><polygon id="Path-316" class="cls-5" points="323.08 296.93 323.08 297.95 324.23 298.68 324.23 302.13 319.71 299.4 319.71 295.96 320.87 296.69 320.87 295.65 323.08 296.93"></polygon><polygon id="Path-317" class="cls-5" points="329.41 306.76 329.41 310.18 328.2 309.46 328.2 310.54 326.04 309.23 326.04 308.2 324.89 307.49 324.89 304.07 329.41 306.76"></polygon><polygon id="Path-318" class="cls-5" points="335.23 299.52 335.23 301.48 324.89 295.67 324.89 293.71 335.23 299.52"></polygon><polygon id="Path-319" class="cls-5" points="328.26 300.21 328.26 301.23 329.41 301.95 329.41 305.37 324.89 302.67 324.89 299.25 326.04 299.9 326.04 298.89 328.26 300.21"></polygon><polygon id="Path-320" class="cls-5" points="334.08 303.45 334.08 304.46 335.23 305.19 335.23 308.6 330.71 305.9 330.71 302.49 331.86 303.2 331.86 302.13 334.08 303.45"></polygon><polygon id="Path-321" class="cls-5" points="340.41 313.24 340.41 316.66 339.25 315.93 339.25 317.01 337.04 315.69 337.04 314.67 335.89 313.95 335.89 310.54 340.41 313.24"></polygon><polygon id="Path-322" class="cls-5" points="344.43 309.27 344.43 310.29 345.59 311.01 345.59 314.42 341.06 311.73 341.06 308.31 342.28 308.96 342.28 307.95 344.43 309.27"></polygon><polygon id="Path-323" class="cls-5" points="346.24 305.95 346.24 307.95 335.89 302.13 335.89 300.19 346.24 305.95"></polygon><polygon id="Path-324" class="cls-5" points="339.21 306.05 339.21 307.07 340.41 307.74 340.35 311.19 335.89 308.46 335.94 305.02 337.08 305.75 337.08 304.71 339.21 306.05"></polygon><polygon id="Path-325" class="cls-5" points="335.23 310.02 335.17 313.48 334.03 312.74 334.03 313.78 331.91 312.44 331.91 311.42 330.71 310.75 330.77 307.31 335.23 310.02"></polygon><polygon id="Path-326" class="cls-5" points="345.59 316.47 345.59 319.88 344.43 319.23 344.43 320.24 342.22 318.93 342.22 317.91 341.06 317.19 341.06 313.78 345.59 316.47"></polygon><polygon id="Path-327" class="cls-5" points="353.36 321.03 353.36 324.47 352.19 323.74 352.19 324.78 349.99 323.5 349.99 322.48 348.82 321.75 348.82 318.3 353.36 321.03"></polygon><polygon id="Path-328" class="cls-5" points="359.18 313.76 359.18 315.72 348.82 309.91 348.82 307.95 359.18 313.76"></polygon><polygon id="Path-329" class="cls-5" points="352.15 313.75 352.15 314.83 353.36 315.5 353.3 318.95 348.82 316.23 348.88 312.79 350.02 313.51 350.02 312.48 352.15 313.75"></polygon><polygon id="Path-330" class="cls-5" points="359.18 324.23 359.18 327.65 358.02 326.99 358.02 328 355.81 326.69 355.81 325.67 354.64 324.96 354.64 321.54 359.18 324.23"></polygon><polygon id="Path-331" class="cls-5" points="358.02 317.04 358.02 318.05 359.18 318.78 359.18 322.18 354.64 319.49 354.7 316.07 355.87 316.74 355.87 315.72 358.02 317.04"></polygon><polygon id="Path-332" class="cls-5" points="364.36 326.85 364.36 330.29 363.19 329.56 363.19 330.6 360.99 329.27 360.99 328.24 359.82 327.58 359.82 324.12 364.36 326.85"></polygon><polygon id="Path-333" class="cls-5" points="363.19 320.23 363.19 321.24 364.36 321.97 364.36 325.42 359.82 322.69 359.82 319.25 360.99 319.98 360.99 318.95 363.19 320.23"></polygon><polygon id="Path-334" class="cls-5" points="369.01 323.5 369.01 324.52 370.18 325.24 370.18 328.66 365.64 325.96 365.64 322.49 366.81 323.21 366.81 322.18 369.01 323.5"></polygon><polygon id="Path-335" class="cls-5" points="375.35 333.33 375.3 336.77 374.14 336.04 374.14 337.07 371.97 335.74 372.03 334.71 370.82 334.04 370.88 330.6 375.35 333.33"></polygon><polygon id="Path-336" class="cls-5" points="381.18 326.05 381.18 328 370.82 322.19 370.82 320.24 381.18 326.05"></polygon><polygon id="Path-337" class="cls-5" points="374.19 326.74 374.19 327.75 375.35 328.47 375.35 331.89 370.82 329.19 370.82 325.78 371.98 326.49 371.98 325.42 374.19 326.74"></polygon><polygon id="Path-338" class="cls-5" points="379.36 329.28 379.36 330.37 380.53 331.04 380.53 334.48 376 331.77 376 328.31 377.18 329.04 377.18 328 379.36 329.28"></polygon><polygon id="Path-339" class="cls-5" points="370.18 330.06 370.18 333.47 368.97 332.75 368.97 333.83 366.81 332.52 366.81 331.49 365.64 330.78 365.64 327.36 370.18 330.06"></polygon><polygon id="Path-340" class="cls-5" points="380.53 336.55 380.53 340 379.37 339.28 379.37 340.3 377.16 339.03 377.16 338.01 376 337.28 376 333.83 380.53 336.55"></polygon><polygon id="Path-341" class="cls-5" points="311.3 285.89 311.3 287.89 300.94 282.07 300.94 280.13 311.3 285.89"></polygon><polygon id="Path-342" class="cls-5" points="370.18 319.54 370.18 321.54 359.82 315.78 359.82 313.78 370.18 319.54"></polygon><polygon id="Path-343" class="cls-5" points="407.06 344.9 407.06 355.83 385.06 343.47 385.12 332.54 407.06 344.9"></polygon><polygon id="Path-344" class="cls-5" points="395.41 334.49 395.41 336.42 385.06 330.58 385.06 328.66 395.41 334.49"></polygon><polygon id="Path-345" class="cls-5" points="406.41 340.97 406.41 342.89 396.05 337.05 396.05 335.13 406.41 340.97"></polygon><path id="Path-346" class="cls-5" d="M409.64,343.7a2.89,2.89,0,0,1,1.3,2.19c0,.78-.56,1.11-1.3.73a3,3,0,0,1-1.29-2.2.81.81,0,0,1,.7-.89A.84.84,0,0,1,409.64,343.7Z"></path><polygon id="Path-347" class="cls-3" points="238.82 238.07 238.7 267.18 230.41 262 230.47 232.89 238.82 238.07"></polygon><path id="Path-348" class="cls-6" d="M234.26,240.18a2.91,2.91,0,0,1,1.34,2.18c0,.78-.59,1.12-1.34.72A2.83,2.83,0,0,1,233,240.9C233,240.12,233.57,239.79,234.26,240.18Z"></path><path id="Path-349" class="cls-6" d="M234.3,257a3,3,0,0,1,1.3,2.18c0,.79-.58,1.11-1.3.73a2.87,2.87,0,0,1-1.3-2.18C233,256.9,233.62,256.62,234.3,257Z"></path><polygon id="Path-350" class="cls-3" points="424.52 345.48 424.4 374.6 416.12 369.42 416.24 340.3 424.52 345.48"></polygon><path id="Path-351" class="cls-6" d="M420.64,347.58a2.9,2.9,0,0,1,1.3,2.18c0,.8-.56,1.12-1.3.74a2.93,2.93,0,0,1-1.28-2.19C419.4,347.53,420,347.2,420.64,347.58Z"></path><path id="Path-352" class="cls-6" d="M420.64,364.4a2.89,2.89,0,0,1,1.3,2.18c0,.8-.56,1.12-1.3.74a2.91,2.91,0,0,1-1.28-2.19C419.4,364.36,420,364,420.64,364.4Z"></path><polygon id="Path-353" class="cls-3" points="416.12 254.38 416.06 283.37 238.82 180.99 238.88 152.01 416.12 254.38"></polygon><polygon id="Path-354" class="cls-5" points="249.18 174.76 249.12 178.18 247.98 177.52 247.98 178.54 245.85 177.23 245.85 176.2 244.64 175.49 244.7 172.07 249.18 174.76"></polygon><polygon id="Path-355" class="cls-5" points="248.01 167.56 248.01 168.58 249.18 169.3 249.18 172.71 244.64 170.02 244.64 166.6 245.81 167.26 245.81 166.25 248.01 167.56"></polygon><polygon id="Path-356" class="cls-5" points="253.85 170.8 253.85 171.82 255 172.53 255 175.95 250.47 173.26 250.47 169.84 251.63 170.56 251.63 169.49 253.85 170.8"></polygon><polygon id="Path-357" class="cls-5" points="259.02 174.05 259.02 175.08 260.17 175.74 260.17 179.19 255.65 176.46 255.71 173.02 256.86 173.75 256.86 172.71 259.02 174.05"></polygon><polygon id="Path-358" class="cls-5" points="265.35 183.85 265.35 187.24 264.2 186.57 264.2 187.6 261.99 186.26 261.99 185.24 260.83 184.51 260.83 181.13 265.35 183.85"></polygon><polygon id="Path-359" class="cls-5" points="264.2 177.27 264.2 178.3 265.35 179.01 265.35 182.43 260.83 179.73 260.83 176.31 261.99 177.03 261.99 175.95 264.2 177.27"></polygon><polygon id="Path-360" class="cls-5" points="270.02 180.46 270.02 181.55 271.17 182.22 271.17 185.66 266.65 182.93 266.65 179.49 267.8 180.21 267.8 179.19 270.02 180.46"></polygon><polygon id="Path-361" class="cls-5" points="276.35 190.3 276.29 193.72 275.15 193.05 275.15 194.07 273.03 192.75 273.03 191.73 271.83 191.01 271.88 187.6 276.35 190.3"></polygon><polygon id="Path-362" class="cls-5" points="275.2 183.74 275.2 184.75 276.35 185.48 276.35 188.9 271.83 186.19 271.83 182.79 272.98 183.44 272.98 182.43 275.2 183.74"></polygon><polygon id="Path-363" class="cls-5" points="255 178.02 255 181.48 253.84 180.75 253.84 181.77 251.63 180.45 251.63 179.42 250.47 178.75 250.47 175.31 255 178.02"></polygon><polygon id="Path-364" class="cls-5" points="260.17 181.24 260.17 184.66 259.02 183.93 259.02 185.01 256.81 183.69 256.81 182.68 255.65 181.95 255.65 178.54 260.17 181.24"></polygon><polygon id="Path-365" class="cls-5" points="271.17 187.09 271.17 190.54 270.02 189.8 269.96 190.84 267.8 189.56 267.8 188.48 266.65 187.81 266.65 184.37 271.17 187.09"></polygon><polygon id="Path-366" class="cls-5" points="282.95 187.63 282.95 188.66 284.12 189.32 284.12 192.78 279.59 190.05 279.59 186.67 280.75 187.34 280.75 186.31 282.95 187.63"></polygon><polygon id="Path-367" class="cls-5" points="289.3 198.09 289.24 201.47 288.08 200.81 288.08 201.84 285.93 200.5 285.93 199.48 284.77 198.75 284.77 195.36 289.3 198.09"></polygon><polygon id="Path-368" class="cls-5" points="289.94 187.59 289.94 189.54 279.59 183.73 279.59 181.77 289.94 187.59"></polygon><polygon id="Path-369" class="cls-5" points="288.13 190.86 288.13 191.87 289.3 192.6 289.3 196.01 284.77 193.31 284.77 189.9 285.93 190.62 285.93 189.54 288.13 190.86"></polygon><polygon id="Path-370" class="cls-5" points="295.12 201.33 295.12 204.77 293.95 204.04 293.95 205.06 291.75 203.8 291.75 202.78 290.59 202.05 290.59 198.6 295.12 201.33"></polygon><polygon id="Path-371" class="cls-5" points="300.94 193.42 300.94 195.36 290.59 189.6 290.59 187.6 300.94 193.42"></polygon><polygon id="Path-372" class="cls-5" points="293.98 194.11 293.92 195.13 295.12 195.8 295.06 199.24 290.59 196.53 290.64 193.07 291.8 193.8 291.8 192.78 293.98 194.11"></polygon><polygon id="Path-373" class="cls-5" points="300.3 203.89 300.3 207.3 299.13 206.64 299.13 207.66 296.93 206.34 296.93 205.33 295.76 204.6 295.76 201.18 300.3 203.89"></polygon><polygon id="Path-374" class="cls-5" points="299.1 197.32 299.1 198.35 300.3 199.06 300.24 202.48 295.76 199.79 295.82 196.37 296.96 197.03 296.96 196.01 299.1 197.32"></polygon><polygon id="Path-375" class="cls-5" points="306.12 207.14 306.12 210.59 304.96 209.86 304.96 210.89 302.75 209.56 302.75 208.53 301.58 207.86 301.58 204.42 306.12 207.14"></polygon><polygon id="Path-376" class="cls-5" points="304.96 200.52 304.96 201.54 306.12 202.28 306.12 205.72 301.58 202.99 301.58 199.55 302.81 200.28 302.81 199.24 304.96 200.52"></polygon><polygon id="Path-377" class="cls-5" points="311.3 210.35 311.3 213.77 310.07 213.11 310.07 214.13 307.93 212.8 307.93 211.79 306.76 211.07 306.76 207.66 311.3 210.35"></polygon><polygon id="Path-378" class="cls-5" points="310.13 203.8 310.13 204.81 311.3 205.53 311.3 208.95 306.76 206.25 306.76 202.78 307.93 203.5 307.93 202.48 310.13 203.8"></polygon><polygon id="Path-379" class="cls-5" points="284.12 194.82 284.12 198.24 282.95 197.53 282.95 198.6 280.75 197.28 280.75 196.26 279.59 195.54 279.59 192.13 284.12 194.82"></polygon><polygon id="Path-380" class="cls-5" points="318.41 214.89 318.41 218.31 317.25 217.64 317.25 218.66 315.04 217.34 315.04 216.33 313.88 215.6 313.88 212.19 318.41 214.89"></polygon><polygon id="Path-381" class="cls-5" points="324.23 206.95 324.23 208.95 313.88 203.12 313.88 201.18 324.23 206.95"></polygon><polygon id="Path-382" class="cls-5" points="317.21 207.68 317.21 208.7 318.41 209.42 318.36 212.84 313.88 210.14 313.94 206.72 315.09 207.39 315.09 206.36 317.21 207.68"></polygon><polygon id="Path-383" class="cls-5" points="324.23 218.15 324.23 221.59 323.08 220.87 323.08 221.89 320.87 220.56 320.87 219.54 319.71 218.88 319.71 215.42 324.23 218.15"></polygon><polygon id="Path-384" class="cls-5" points="323.08 210.92 323.08 211.94 324.23 212.65 324.23 216.07 319.71 213.38 319.71 209.96 320.87 210.67 320.87 209.6 323.08 210.92"></polygon><polygon id="Path-385" class="cls-5" points="329.41 220.7 329.41 224.12 328.2 223.4 328.2 224.49 326.04 223.16 326.04 222.15 324.89 221.43 324.89 218.01 329.41 220.7"></polygon><polygon id="Path-386" class="cls-5" points="335.23 213.47 335.23 215.42 324.89 209.61 324.89 207.66 335.23 213.47"></polygon><polygon id="Path-387" class="cls-5" points="328.26 214.16 328.26 215.2 329.41 215.86 329.41 219.31 324.89 216.65 324.89 213.14 326.04 213.86 326.04 212.84 328.26 214.16"></polygon><polygon id="Path-388" class="cls-5" points="334.08 217.39 334.08 218.41 335.23 219.13 335.23 222.54 330.71 219.84 330.71 216.44 331.86 217.15 331.86 216.07 334.08 217.39"></polygon><polygon id="Path-389" class="cls-5" points="340.41 227.2 340.41 230.65 339.25 229.93 339.25 230.95 337.04 229.68 337.04 228.59 335.89 227.93 335.89 224.49 340.41 227.2"></polygon><polygon id="Path-390" class="cls-5" points="344.43 223.21 344.43 224.22 345.59 224.95 345.59 228.37 341.06 225.66 341.06 222.25 342.28 222.91 342.28 221.89 344.43 223.21"></polygon><polygon id="Path-391" class="cls-5" points="346.24 219.89 346.24 221.89 335.89 216.13 335.89 214.13 346.24 219.89"></polygon><polygon id="Path-392" class="cls-5" points="339.21 219.92 339.21 221.02 340.41 221.68 340.35 225.13 335.89 222.4 335.94 218.96 337.08 219.69 337.08 218.66 339.21 219.92"></polygon><polygon id="Path-393" class="cls-5" points="335.23 223.94 335.17 227.35 334.03 226.7 334.03 227.71 331.91 226.4 331.91 225.38 330.71 224.72 330.77 221.25 335.23 223.94"></polygon><polygon id="Path-394" class="cls-5" points="345.59 230.41 345.59 233.83 344.43 233.18 344.43 234.19 342.22 232.87 342.22 231.85 341.06 231.13 341.06 227.71 345.59 230.41"></polygon><polygon id="Path-395" class="cls-5" points="353.36 234.96 353.36 238.42 352.19 237.69 352.19 238.71 349.99 237.44 349.99 236.36 348.82 235.69 348.82 232.25 353.36 234.96"></polygon><polygon id="Path-396" class="cls-5" points="359.18 227.7 359.18 229.65 348.82 223.85 348.82 221.89 359.18 227.7"></polygon><polygon id="Path-397" class="cls-5" points="352.15 227.7 352.15 228.78 353.36 229.45 353.3 232.89 348.82 230.18 348.88 226.72 350.02 227.45 350.02 226.43 352.15 227.7"></polygon><polygon id="Path-398" class="cls-5" points="359.18 238.18 359.18 241.59 358.02 240.87 358.02 241.95 355.81 240.63 355.81 239.61 354.64 238.89 354.64 235.49 359.18 238.18"></polygon><polygon id="Path-399" class="cls-5" points="358.02 230.97 358.02 232 359.18 232.71 359.18 236.13 354.64 233.44 354.7 230.02 355.87 230.68 355.87 229.65 358.02 230.97"></polygon><polygon id="Path-400" class="cls-5" points="364.36 241.44 364.36 244.89 363.19 244.17 363.19 245.19 360.99 243.86 360.99 242.83 359.82 242.17 359.82 238.71 364.36 241.44"></polygon><polygon id="Path-401" class="cls-5" points="363.19 234.21 363.19 235.22 364.36 235.95 364.36 239.37 359.82 236.67 359.82 233.25 360.99 233.97 360.99 232.89 363.19 234.21"></polygon><polygon id="Path-402" class="cls-5" points="369.01 237.45 369.01 238.49 370.18 239.15 370.18 242.59 365.64 239.88 365.64 236.43 366.81 237.15 366.81 236.13 369.01 237.45"></polygon><polygon id="Path-403" class="cls-5" points="375.35 247.26 375.3 250.65 374.14 249.98 374.14 251.01 371.97 249.68 372.03 248.66 370.82 247.93 370.88 244.54 375.35 247.26"></polygon><polygon id="Path-404" class="cls-5" points="381.18 240 381.18 241.95 370.82 236.14 370.82 234.19 381.18 240"></polygon><polygon id="Path-405" class="cls-5" points="374.19 240.68 374.19 241.7 375.35 242.42 375.35 245.83 370.82 243.14 370.82 239.73 371.98 240.38 371.98 239.37 374.19 240.68"></polygon><polygon id="Path-406" class="cls-5" points="379.36 243.23 379.36 244.31 380.53 244.98 380.53 248.42 376 245.7 376 242.25 377.18 242.98 377.18 241.95 379.36 243.23"></polygon><polygon id="Path-407" class="cls-5" points="370.18 244 370.18 247.42 368.97 246.7 368.97 247.78 366.81 246.47 366.81 245.44 365.64 244.73 365.64 241.31 370.18 244"></polygon><polygon id="Path-408" class="cls-5" points="380.53 250.49 380.53 253.94 379.37 253.22 379.37 254.25 377.16 252.98 377.16 251.94 376 251.22 376 247.78 380.53 250.49"></polygon><polygon id="Path-409" class="cls-5" points="311.3 199.87 311.3 201.84 300.94 196.03 300.94 194.07 311.3 199.87"></polygon><polygon id="Path-410" class="cls-5" points="370.18 233.47 370.18 235.49 359.82 229.65 359.82 227.71 370.18 233.47"></polygon><polygon id="Path-411" class="cls-5" points="407.06 258.84 407.06 269.78 385.06 257.42 385.12 246.48 407.06 258.84"></polygon><polygon id="Path-412" class="cls-5" points="395.41 248.43 395.41 250.36 385.06 244.52 385.06 242.59 395.41 248.43"></polygon><polygon id="Path-413" class="cls-5" points="406.41 254.91 406.41 256.84 396.05 250.99 396.05 249.07 406.41 254.91"></polygon><path id="Path-414" class="cls-5" d="M409.64,258.29a2.87,2.87,0,0,1,1.3,2.18c0,.8-.56,1.12-1.3.72a2.89,2.89,0,0,1-1.29-2.17.82.82,0,0,1,.7-.9A.84.84,0,0,1,409.64,258.29Z"></path><polygon id="Path-415" class="cls-3" points="238.82 152.02 238.7 181.13 230.41 175.95 230.47 146.84 238.82 152.02"></polygon><path id="Path-416" class="cls-6" d="M234.3,154.11a3,3,0,0,1,1.3,2.18c0,.79-.58,1.12-1.3.73a2.85,2.85,0,0,1-1.3-2.18A.8.8,0,0,1,234.3,154.11Z"></path><path id="Path-417" class="cls-6" d="M234.3,171a2.93,2.93,0,0,1,1.3,2.17c0,.79-.58,1.12-1.3.73a2.84,2.84,0,0,1-1.3-2.17C233,170.83,233.62,170.56,234.3,171Z"></path><polygon id="Path-418" class="cls-3" points="424.52 259.43 424.4 288.55 416.12 283.35 416.24 254.25 424.52 259.43"></polygon><path id="Path-419" class="cls-6" d="M420.64,261.53a2.85,2.85,0,0,1,1.3,2.18c0,.78-.56,1.12-1.3.72a2.88,2.88,0,0,1-1.28-2.18C419.4,261.47,420,261.13,420.64,261.53Z"></path><path id="Path-420" class="cls-6" d="M420.64,278.35a2.87,2.87,0,0,1,1.3,2.18c0,.79-.56,1.12-1.3.73a2.89,2.89,0,0,1-1.28-2.18C419.4,278.29,420,278,420.64,278.35Z"></path><polyline id="Path-421" class="cls-6" points="466.59 298.89 466.59 288.31 512.53 261.36 512.53 271.59"></polyline><polyline id="Path-422" class="cls-6" points="466.59 323.48 466.59 312.88 512.53 285.95 512.53 296.13"></polyline><polyline id="Path-423" class="cls-6" points="466.59 347.43 466.59 336.83 512.53 309.89 512.53 320.07"></polyline><polyline id="Path-424" class="cls-6" points="466.59 371.36 466.59 360.76 512.53 333.83 512.53 344.01"></polyline><polyline id="Path-425" class="cls-6" points="466.59 395.3 466.59 384.71 512.53 357.77 512.53 367.95"></polyline><polyline id="Path-426" class="cls-6" points="537.12 260.06 537.12 249.43 583.05 222.54 583.05 232.76"></polyline><polyline id="Path-427" class="cls-6" points="537.12 284.01 537.12 273.36 583.05 246.48 583.05 256.7"></polyline><polyline id="Path-428" class="cls-6" points="537.12 307.95 537.12 297.31 583.05 270.42 583.05 280.65"></polyline><polyline id="Path-429" class="cls-6" points="537.12 331.89 537.12 321.24 583.05 294.37 583.05 304.58"></polyline><polyline id="Path-430" class="cls-6" points="537.12 355.83 537.12 345.19 583.05 318.3 583.05 328.53"></polyline><path id="Path-431" class="cls-7" d="M129.17,11.13c0-2.65,1-4.48,2.49-5.27h0l5.76-3.45h0c1.42-.82,3.37-.69,5.5.58L299.6,96a18,18,0,0,1,7.82,14l-.34,118.92c0,2.7-1,4.54-2.53,5.3h0l-5.72,3.4h0c-1.41.84-3.38.71-5.53-.57L136.65,144a16.09,16.09,0,0,1-5.54-6,16.68,16.68,0,0,1-2.29-7.9Z"></path><path id="Path-432" class="cls-7" d="M293.42,237c4.31,2.58,7.83.5,7.84-4.6l.32-119.08a18,18,0,0,0-7.84-14L137,6.23c-4.33-2.56-7.84-.5-7.85,4.61l-.35,119.07a16.77,16.77,0,0,0,2.28,7.92,16.26,16.26,0,0,0,5.55,6Z"></path><ellipse id="Oval" class="cls-8" cx="215.21" cy="60.77" rx="0.98" ry="1.3"></ellipse><path id="Path-433" class="cls-7" d="M137.12,10.29c-2.38-1.45-4.4-.3-4.41,2.59v6.39l165.65,98.44v-6.35a10.12,10.12,0,0,0-4.4-7.86Z"></path><path id="Path-434" class="cls-9" d="M293.18,107.53c-.72-.39-1.29-.08-1.3.73a2.78,2.78,0,0,0,1.3,2.17c.7.4,1.28.08,1.3-.73A2.84,2.84,0,0,0,293.18,107.53Z"></path><path id="Path-435" class="cls-10" d="M287.35,104.3c-.71-.41-1.28-.09-1.29.71a2.76,2.76,0,0,0,1.29,2.17c.72.4,1.3.08,1.3-.72A2.71,2.71,0,0,0,287.35,104.3Z"></path><path id="Path-436" class="cls-7" d="M298.36,117.67l-35.91-21.3-.33,117.87,31.49,18.65c2.44,1.45,4.43.29,4.44-2.59Z"></path><path id="Path-437" class="cls-11" d="M281.54,100.41c-.72-.39-1.31-.07-1.31.73a2.8,2.8,0,0,0,1.29,2.17c.73.4,1.3.08,1.31-.72A2.76,2.76,0,0,0,281.54,100.41Z"></path><path id="Path-438" class="cls-7" d="M281.52,114.67c-.7-.42-1.29-.1-1.29.75a2.89,2.89,0,0,0,1.27,2.27l11.68,7c.71.41,1.28.08,1.3-.75a3,3,0,0,0-1.27-2.29Z"></path><path id="Path-439" class="cls-7" d="M286.68,127.6c-.69-.41-1.27-.07-1.27.74a2.85,2.85,0,0,0,1.27,2.21l6.52,3.81c.7.42,1.28.08,1.28-.73a2.87,2.87,0,0,0-1.2-2.21Z"></path><path id="Path-440" class="cls-7" d="M262.12,96.32l-129.78-77L132,132a10.06,10.06,0,0,0,4.38,7.83l125.34,74.34Z"></path><path id="Path-441" class="cls-7" d="M286.68,146.36c-.69-.4-1.27-.08-1.27.73a2.83,2.83,0,0,0,1.19,2.21l6.55,3.83c.71.4,1.27.08,1.28-.73a2.87,2.87,0,0,0-1.26-2.22Z"></path><path id="Path-442" class="cls-7" d="M278.94,150.9c-.71-.43-1.29-.08-1.29.79a3.06,3.06,0,0,0,1.29,2.38l14.29,8.78c.7.43,1.28.09,1.28-.78a3.06,3.06,0,0,0-1.26-2.38Z"></path><path id="Path-443" class="cls-7" d="M269.92,126.92c-.71-.43-1.29-.07-1.29.78a3,3,0,0,0,1.27,2.39l23.3,14c.72.43,1.31.09,1.31-.77a3.05,3.05,0,0,0-1.28-2.38Z"></path><path id="Path-444" class="cls-9" d="M141.33,33c12.62,7.95,3.94,15.18,14.73,16.86,6.39,1,8.07,8.89,10.51,14.44s4.76,11.08,10.09,14.21a18.36,18.36,0,0,0,6.63,2.29,23.8,23.8,0,0,1,8.57,3.2c5.62,3.32,10.24,8.58,14.29,13.49s7.49,9.46,10.72,11.37a5.13,5.13,0,0,0,7-.93c5.68-5.73,14.6-2.38,21.34,1.58a63.19,63.19,0,0,1,9.22,6.69l-.07,19.69-113.12-67Z"></path><ellipse id="Oval-2" class="cls-12" cx="247.23" cy="148.77" rx="4.47" ry="8.16" transform="translate(-39.34 115.12) rotate(-24.34)"></ellipse><polyline id="Path-445" class="cls-13" points="244.64 147.48 246.15 150.72 249.18 148.46"></polyline><path id="Path-446" class="cls-12" d="M153.23,99.82l-8.77-5.28a8.53,8.53,0,0,1-3.37-6.74h0c0-2.59,1.51-3.78,3.37-2.66l8.77,5.28a8.5,8.5,0,0,1,3.39,6.73h0C156.66,99.75,155.15,101,153.23,99.82Z"></path><ellipse id="Oval-3" class="cls-8" cx="145.22" cy="89.92" rx="2.27" ry="4" transform="translate(-25.36 81.2) rotate(-28.84)"></ellipse><ellipse id="Oval-4" class="cls-12" cx="247.49" cy="167.85" rx="4.47" ry="8.16" transform="translate(-47.18 116.92) rotate(-24.34)"></ellipse><polyline id="Path-447" class="cls-13" points="245.3 166.25 246.8 169.49 249.82 167.22"></polyline><path id="Path-448" class="cls-12" d="M153.23,119.24,144.46,114a8.51,8.51,0,0,1-3.37-6.73h0c0-2.6,1.51-3.79,3.37-2.66l8.77,5.27a8.5,8.5,0,0,1,3.39,6.73h0C156.66,119.17,155.15,120.36,153.23,119.24Z"></path><ellipse id="Oval-5" class="cls-8" cx="145.24" cy="109.74" rx="2.27" ry="4" transform="translate(-34.92 83.67) rotate(-28.84)"></ellipse><ellipse id="Oval-6" class="cls-14" cx="247.45" cy="186.86" rx="4.47" ry="8.16" transform="translate(-55.02 118.6) rotate(-24.34)"></ellipse><path id="Path-449" class="cls-14" d="M153.23,139.29l-8.74-5.23a8.56,8.56,0,0,1-3.37-6.74h0c0-2.59,1.52-3.78,3.37-2.66l8.74,5.24a8.48,8.48,0,0,1,3.39,6.72h0C156.66,139.23,155.15,140.42,153.23,139.29Z"></path><ellipse id="Oval-7" class="cls-8" cx="151.86" cy="133.51" rx="2.27" ry="4" transform="translate(-45.57 89.81) rotate(-28.84)"></ellipse><path id="Path-450" class="cls-7" d="M166.75,99.91c-1.26-.72-2.32-.15-2.38,1.37a5.34,5.34,0,0,0,2.38,4.15l65.87,39.15a1.46,1.46,0,0,0,2.38-1.37,5.22,5.22,0,0,0-2.38-4.13Z"></path><path id="Path-451" class="cls-15" d="M219.19,131.61c-1.29-.71-2.38-.14-2.38,1.36a5.12,5.12,0,0,0,2.38,4.06l13.39,7.56c1.29.71,2.38.14,2.38-1.35a5.11,5.11,0,0,0-2.38-4.07Z"></path><path id="Path-452" class="cls-7" d="M195.22,136.8c-1.28-.74-2.32-.15-2.38,1.37a5.28,5.28,0,0,0,2.32,4.13l37.4,22.34c1.27.73,2.38.15,2.38-1.38a5.33,5.33,0,0,0-2.38-4.14Z"></path><path id="Path-453" class="cls-7" d="M195.21,156.21c-1.27-.74-2.33-.15-2.33,1.37a5.38,5.38,0,0,0,2.31,4.14l37.42,22.35c1.27.74,2.38.16,2.38-1.37a5.28,5.28,0,0,0-2.31-4.14Z"></path><path id="Path-454" class="cls-16" d="M219.19,151.67c-1.29-.71-2.38-.15-2.38,1.36a5.14,5.14,0,0,0,2.38,4.07l13.39,7.54c1.29.73,2.38.15,2.38-1.35a5.15,5.15,0,0,0-2.38-4.07Z"></path><path id="Path-455" class="cls-17" d="M221.1,171.74c-1.28-.73-2.38-.16-2.38,1.34a5.17,5.17,0,0,0,2.38,4.06l11.51,6.91c1.27.72,2.38.15,2.38-1.34a5.22,5.22,0,0,0-2.38-4.08Z"></path><ellipse id="Oval-8" class="cls-18" cx="247.24" cy="186.73" rx="2.13" ry="3.82" transform="translate(-50.62 101.42) rotate(-21.08)"></ellipse><line id="Path-456" class="cls-13" x1="249.18" y1="185.66" x2="245.3" y2="188.25"></line></g></g></g></svg> 